<?xml version="1.0" standalone="no"?>
<!DOCTYPE svg PUBLIC "-//W3C//DTD SVG 20010904//EN"
 "http://www.w3.org/TR/2001/REC-SVG-20010904/DTD/svg10.dtd">
<svg version="1.0" xmlns="http://www.w3.org/2000/svg"
 width="735.000000pt" height="400.000000pt" viewBox="0 0 735.000000 400.000000"
 preserveAspectRatio="xMidYMid meet">
<metadata>
Created by potrace 1.16, written by Peter Selinger 2001-2019
</metadata>
<g transform="translate(0.000000,400.000000) scale(0.100000,-0.100000)"
fill="#000000" stroke="none">
<path d="M0 2000 l0 -2000 3675 0 3675 0 0 2000 0 2000 -1665 0 c-1103 0
-1665 -3 -1665 -10 0 -5 6 -10 13 -10 8 0 36 -22 63 -48 27 -27 55 -47 61 -45
7 3 22 -6 34 -18 15 -15 18 -24 11 -27 -13 -4 -17 -32 -4 -33 62 -5 125 -41
117 -65 -2 -6 7 -16 21 -23 16 -7 24 -19 24 -36 0 -25 41 -62 58 -51 17 10
120 -113 127 -152 6 -30 8 -33 16 -19 6 9 8 21 4 26 -4 8 3 8 34 2 2 -1 -2 -8
-9 -16 -13 -15 -4 -19 37 -18 7 1 10 -3 7 -8 -3 -5 0 -9 5 -9 6 0 11 5 11 11
0 6 12 10 28 9 42 -3 45 -1 32 15 -11 13 -9 19 8 35 11 11 23 28 27 40 5 15
15 20 40 20 31 0 35 3 41 36 5 29 10 35 26 31 15 -4 18 -2 14 10 -10 26 12 44
35 30 14 -8 22 -9 27 -1 10 14 43 28 65 25 9 -1 17 4 17 13 0 21 21 31 30 16
5 -7 6 -20 2 -29 -5 -14 -4 -14 14 0 29 25 69 28 95 8 l24 -19 -30 0 c-30 -1
-30 -1 -5 -11 13 -6 35 -7 48 -4 15 4 21 2 17 -5 -3 -5 1 -10 9 -10 8 0 18 -5
21 -10 4 -6 1 -9 -7 -8 -8 2 -13 -7 -13 -22 0 -15 -5 -24 -12 -23 -17 4 -16
-17 1 -59 10 -23 22 -34 37 -35 35 -3 40 -16 21 -54 -13 -26 -21 -33 -30 -25
-36 34 -42 37 -42 21 0 -8 7 -15 15 -15 9 0 15 -9 15 -25 0 -16 6 -25 15 -25
8 0 15 -4 15 -10 0 -5 6 -10 14 -10 8 0 17 -6 19 -12 4 -8 6 -7 6 3 1 14 20
29 36 29 7 0 -20 -65 -30 -72 -17 -13 -25 -9 -18 8 4 12 2 15 -8 12 -8 -3 -13
-14 -11 -24 2 -13 0 -15 -5 -7 -5 7 -22 11 -37 10 -23 -2 -29 2 -31 21 -1 12
2 22 6 22 15 0 18 45 4 60 -13 13 -15 12 -15 -5 0 -18 0 -18 -15 1 -8 10 -15
30 -15 43 0 19 -3 21 -14 11 -12 -9 -17 -7 -28 9 -13 22 -52 28 -63 11 -4 -6
-11 -8 -16 -5 -5 4 -2 17 7 31 12 18 13 24 3 24 -7 0 -21 7 -31 17 -25 23 -33
10 -13 -21 9 -14 14 -30 10 -36 -4 -6 -1 -17 5 -25 6 -8 9 -18 6 -24 -3 -5 1
-11 9 -15 9 -3 15 0 15 9 0 15 26 45 40 45 4 0 6 -9 3 -20 -6 -23 20 -49 50
-50 20 0 20 -1 7 -34 -11 -31 -34 -36 -25 -6 8 24 -10 27 -23 4 -7 -13 -11 -7
-16 24 -6 40 -26 68 -26 38 0 -8 5 -18 10 -21 13 -8 13 -35 0 -35 -5 0 -10 7
-10 15 0 9 -6 12 -17 9 -10 -3 -25 -8 -33 -11 -13 -4 -12 -6 3 -14 21 -12 23
-39 2 -39 -8 0 -15 4 -15 9 0 5 -9 11 -20 14 -22 6 -28 27 -7 27 8 0 7 3 -3 9
-10 7 -18 4 -28 -11 -12 -17 -13 -21 -1 -29 11 -6 11 -11 1 -21 -6 -6 -12 -22
-12 -35 0 -31 -45 -43 -65 -17 -20 26 -18 42 5 56 24 15 26 28 4 28 -8 0 -13
4 -10 8 3 5 -8 24 -24 43 -33 38 -42 20 -10 -21 28 -35 25 -48 -5 -20 -14 13
-25 18 -25 12 0 -6 4 -14 10 -17 16 -10 12 -28 -5 -21 -20 7 -20 -18 0 -34 21
-18 13 -35 -16 -35 -17 0 -24 -6 -24 -20 0 -13 6 -19 18 -18 12 1 17 -4 13
-14 -3 -8 -6 -19 -6 -25 0 -7 -5 -6 -14 1 -17 14 -34 -5 -19 -20 15 -15 4 -62
-11 -49 -9 6 -25 3 -51 -10 -47 -24 -49 -24 -42 -6 3 8 2 16 -3 18 -6 2 -3 16
5 32 27 52 12 88 -31 72 -11 -4 -13 -10 -5 -23 7 -13 5 -23 -6 -35 -13 -15
-13 -19 1 -40 9 -12 16 -31 16 -41 0 -10 4 -15 10 -12 6 3 10 0 10 -8 0 -26
-13 -26 -32 -1 -11 14 -25 23 -32 21 -6 -2 -19 0 -30 5 -12 7 -16 7 -12 0 7
-12 -12 -29 -39 -33 -12 -3 -21 -15 -26 -36 -6 -29 -4 -31 23 -35 24 -4 31 0
39 19 5 12 15 23 23 23 9 0 13 -6 10 -14 -3 -9 1 -13 12 -13 9 1 19 -3 21 -9
5 -16 -26 -46 -39 -38 -6 4 -26 8 -45 10 -30 3 -33 1 -27 -20 3 -13 1 -27 -6
-31 -7 -4 -14 1 -17 14 -7 27 -19 27 -26 1 -3 -11 -11 -20 -17 -20 -7 0 -10 6
-7 13 6 17 -30 40 -46 30 -7 -4 -22 -8 -35 -8 -19 -1 -23 3 -19 22 3 17 0 23
-15 23 -15 0 -17 -5 -12 -25 5 -20 3 -24 -9 -19 -17 6 -50 -33 -40 -48 3 -5
16 -7 29 -4 14 4 33 2 44 -4 18 -9 20 -8 20 15 0 14 3 25 8 25 11 0 32 -51 25
-63 -10 -16 19 -26 39 -14 16 10 22 8 34 -8 14 -19 16 -19 28 -2 8 9 26 17 43
17 23 0 32 6 37 23 6 19 7 20 16 5 12 -20 3 -48 -15 -48 -17 0 -28 -17 -20
-30 5 -8 11 -8 20 0 10 9 16 7 24 -9 6 -11 11 -28 11 -38 1 -17 1 -17 14 0 8
10 26 17 47 17 38 0 53 -8 62 -30 4 -12 6 -12 6 2 1 11 7 15 21 11 20 -5 20
-7 5 -30 -9 -14 -15 -26 -13 -27 22 -14 60 -24 77 -19 26 7 54 -15 46 -35 -3
-8 9 -3 27 12 18 14 44 31 57 36 31 14 91 2 91 -17 0 -9 -6 -13 -14 -10 -8 3
-16 -2 -19 -14 -7 -24 -27 -25 -34 0 -4 16 -10 18 -35 10 -43 -12 -45 -16 -19
-40 17 -16 25 -19 31 -9 12 19 18 0 19 -63 0 -52 -2 -59 -24 -67 -14 -5 -31
-7 -39 -4 -11 4 -13 0 -9 -14 4 -16 -1 -21 -19 -24 -18 -2 -23 -9 -21 -28 1
-14 -1 -19 -3 -12 -11 25 -25 12 -19 -18 6 -26 4 -30 -14 -30 -24 0 -26 -8 -7
-32 9 -13 16 -14 24 -6 17 17 26 -16 14 -52 -13 -36 4 -42 17 -7 5 13 16 29
25 36 14 12 16 12 11 -1 -4 -9 0 -18 9 -21 15 -6 30 18 20 34 -3 5 2 9 10 9
18 0 21 -11 5 -27 -7 -7 -6 -12 5 -16 11 -4 16 -1 16 10 0 13 2 14 17 2 13
-11 17 -11 20 -2 3 8 14 11 29 7 20 -5 24 -2 24 15 0 12 4 21 10 21 5 0 9 -10
7 -22 -1 -16 3 -22 13 -19 8 2 23 5 32 5 10 1 21 5 24 9 4 4 13 2 21 -4 7 -6
13 -8 13 -3 0 4 13 -5 30 -21 16 -16 32 -26 35 -23 9 8 -6 58 -16 58 -5 0 -9
9 -9 20 0 16 -5 19 -24 14 -18 -4 -25 -1 -29 18 -4 14 -1 29 8 38 13 13 15 12
15 -7 0 -16 5 -20 19 -16 13 3 24 -4 37 -25 11 -19 23 -28 32 -24 12 4 13 1 5
-12 -11 -20 -6 -63 8 -72 5 -3 9 -10 9 -16 0 -7 -14 -8 -40 -4 -29 4 -40 3
-40 -6 0 -7 -12 -18 -26 -25 -23 -11 -26 -9 -36 15 -6 15 -12 22 -15 15 -7
-18 -23 -16 -23 2 0 21 -16 19 -40 -5 -11 -11 -24 -20 -30 -20 -5 0 -10 -5
-10 -11 0 -8 -5 -8 -15 1 -13 10 -15 9 -15 -9 0 -12 6 -21 15 -21 8 0 15 -4
15 -10 0 -5 -5 -10 -11 -10 -6 0 -9 -7 -5 -15 3 -8 1 -15 -4 -15 -20 0 -9 -18
14 -22 26 -5 64 16 47 26 -9 6 0 42 15 65 2 2 18 -7 36 -20 36 -26 75 -34 94
-18 8 7 14 7 19 -1 10 -16 25 -12 25 8 0 10 15 24 38 34 35 16 38 16 53 -2 9
-11 19 -16 23 -13 8 8 46 12 46 5 0 -10 -49 -50 -54 -45 -3 3 -26 -2 -51 -11
-24 -10 -54 -15 -65 -11 -11 3 -20 2 -20 -3 0 -5 -9 -12 -20 -15 -23 -6 -27
-27 -5 -27 19 0 19 -14 0 -30 -11 -9 -13 -23 -8 -52 4 -29 2 -42 -8 -48 -11
-7 -10 -10 4 -16 9 -3 17 -13 17 -21 0 -8 5 -11 10 -8 8 5 7 11 0 20 -7 8 -8
19 -4 26 4 8 12 3 21 -16 13 -25 13 -29 -7 -50 -14 -15 -19 -28 -14 -36 4 -8
10 -29 14 -49 3 -21 11 -35 20 -35 8 0 21 -4 28 -8 8 -6 12 -2 12 12 0 11 5
23 10 26 18 11 11 25 -12 26 l-23 0 23 16 c28 20 29 43 1 36 -18 -5 -20 -3
-15 15 5 14 1 24 -11 31 -10 5 -14 13 -10 17 5 5 12 2 16 -5 6 -9 14 -10 22
-5 19 12 69 14 70 3 7 -49 20 -70 40 -64 13 4 19 2 17 -7 -2 -7 7 -14 20 -16
17 -3 22 1 22 17 0 12 5 21 11 21 6 0 8 -7 5 -16 -5 -13 -1 -15 20 -10 20 5
27 3 31 -12 3 -14 11 -18 26 -15 18 4 20 3 7 -7 -11 -9 -12 -13 -3 -17 15 -6
17 -33 3 -33 -5 0 -10 5 -10 11 0 8 -15 10 -46 6 -44 -5 -45 -4 -40 19 6 24
-9 35 -17 12 -3 -10 -7 -10 -20 1 -15 12 -17 11 -17 -3 0 -10 -7 -24 -15 -32
-8 -9 -15 -27 -15 -42 0 -15 -3 -37 -6 -49 -5 -18 -2 -23 11 -23 13 0 15 3 6
13 -8 10 -7 17 1 25 20 20 35 14 41 -15 6 -27 -6 -44 -37 -57 -18 -7 17 -26
37 -20 11 3 17 0 17 -10 0 -9 5 -16 10 -16 6 0 10 -4 10 -9 0 -12 -56 -31 -66
-23 -4 4 -4 -1 -1 -11 4 -10 7 -21 7 -24 0 -3 6 0 14 6 11 9 14 8 12 -6 0 -10
5 -17 12 -16 6 2 12 -1 12 -6 0 -16 -38 -23 -61 -10 -18 9 -24 8 -31 -5 -11
-20 -28 -21 -28 -1 0 12 -4 13 -25 3 -33 -15 -31 -29 5 -50 17 -9 30 -13 30
-8 0 6 7 10 15 10 8 0 15 -7 15 -15 0 -8 10 -20 22 -26 13 -7 29 -19 37 -27
13 -12 12 -15 -2 -24 -23 -12 -21 -28 2 -28 26 0 30 -9 19 -48 -11 -41 -35
-41 -53 1 l-14 32 -1 -30 c0 -20 -12 -43 -36 -69 -34 -38 -35 -38 -56 -20 -20
19 -21 19 -14 -6 14 -49 28 -68 46 -63 12 3 22 -3 30 -17 13 -25 35 -22 35 6
0 15 7 19 33 17 38 -1 62 -18 62 -43 0 -10 5 -20 12 -22 19 -7 -2 -30 -23 -25
-10 3 -25 -3 -34 -13 -14 -15 -14 -19 -1 -29 13 -11 19 -8 38 12 13 13 32 26
43 29 14 3 19 11 17 27 -1 17 2 22 12 18 8 -3 17 1 20 9 3 8 14 14 25 14 11 0
22 9 26 20 7 21 25 28 25 10 0 -5 -5 -10 -11 -10 -6 0 -9 -6 -6 -12 2 -7 13
-13 25 -13 12 0 22 -2 22 -5 2 -11 -14 -45 -24 -53 -6 -4 1 -5 17 -1 23 5 27
3 27 -15 0 -12 -5 -21 -12 -21 -6 0 -1 -11 12 -25 25 -27 21 -38 -18 -50 -16
-5 -24 -2 -28 12 -3 10 -10 26 -15 35 -13 25 -11 28 7 21 11 -4 15 -2 12 7 -5
15 -56 32 -70 24 -5 -3 -5 -11 -1 -17 5 -7 8 -27 7 -45 -2 -25 1 -31 10 -23 7
6 17 6 26 1 13 -8 13 -13 2 -31 -12 -19 -12 -20 10 -14 20 5 21 4 7 -7 -8 -7
-18 -21 -22 -30 -6 -16 -9 -16 -31 6 -20 18 -25 31 -23 59 4 39 -3 46 -22 23
-6 -7 -22 -11 -35 -9 -21 4 -26 0 -35 -33 -6 -22 -11 -44 -11 -50 0 -14 -28
-26 -40 -19 -5 3 -7 12 -4 19 3 8 -4 16 -15 19 -30 8 -26 26 9 38 22 8 30 17
30 34 0 13 -7 25 -15 29 -8 3 -15 15 -15 26 0 11 -4 20 -10 20 -5 0 -10 6 -10
14 0 8 -5 18 -11 21 -21 13 -21 -5 -1 -39 18 -30 19 -36 6 -47 -8 -6 -14 -17
-14 -24 0 -6 -7 -26 -16 -43 -8 -18 -13 -36 -9 -42 3 -5 0 -10 -9 -10 -8 0
-17 14 -21 32 -6 26 -9 28 -17 15 -11 -21 -34 -22 -42 -2 -3 8 -10 15 -16 15
-18 0 -1 -43 26 -65 26 -23 32 -40 10 -32 -8 3 -17 -1 -20 -9 -8 -21 -8 -21 9
-21 8 0 12 5 8 10 -3 5 3 6 15 3 13 -4 22 -1 26 9 3 9 11 13 16 10 8 -5 8 -11
1 -19 -6 -7 -8 -22 -5 -33 4 -13 -1 -28 -14 -41 -24 -24 -19 -64 11 -77 25
-12 34 -35 14 -35 -9 0 -17 6 -20 13 -7 20 -17 3 -10 -21 4 -17 10 -21 29 -16
15 4 24 2 24 -5 0 -6 -11 -11 -23 -11 -17 0 -29 -10 -42 -34 -17 -31 -21 -33
-42 -23 -19 8 -23 16 -18 34 3 13 1 23 -5 23 -5 0 -10 -13 -10 -30 0 -32 -9
-37 -28 -18 -16 16 -91 22 -107 8 -10 -9 -15 -6 -20 11 -5 16 -9 18 -15 9 -5
-9 -21 -11 -49 -7 -23 3 -44 1 -47 -4 -8 -14 -34 -11 -34 4 0 8 -7 14 -15 14
-8 0 -15 -6 -15 -14 0 -18 -17 -16 -24 4 -6 14 -8 14 -22 -3 -11 -14 -17 -15
-20 -6 -7 14 -74 17 -74 2 0 -5 -6 -7 -14 -4 -7 3 -16 -2 -20 -12 -5 -13 -9
-14 -21 -4 -8 7 -15 9 -15 5 0 -4 -6 -2 -14 4 -7 6 -24 11 -37 10 -13 0 -36 2
-51 4 -16 2 -28 1 -28 -3 0 -4 -28 -6 -62 -5 -35 1 -71 -3 -82 -9 -14 -8 -20
-8 -23 1 -3 9 -10 10 -23 3 -13 -7 -22 -4 -35 10 -11 13 -25 18 -37 14 -14 -4
-18 0 -18 17 0 12 -3 19 -7 15 -8 -8 -9 -13 -11 -69 -2 -33 -5 -38 -32 -43
-23 -5 -30 -12 -30 -31 0 -13 -4 -22 -9 -19 -5 3 -12 -1 -15 -10 -5 -12 -12
-9 -36 18 -16 18 -30 36 -30 40 0 5 -7 8 -15 8 -8 0 -15 5 -15 10 0 6 7 10 15
10 18 0 20 17 3 22 -6 2 -8 10 -4 16 10 17 26 15 26 -3 0 -8 5 -15 10 -15 6 0
10 8 10 18 1 15 2 15 10 1 6 -11 18 -15 35 -11 18 3 25 0 25 -12 0 -9 5 -16
10 -16 6 0 10 7 10 15 0 8 5 15 10 15 6 0 10 9 10 20 0 22 -35 28 -43 8 -4
-10 -6 -10 -6 0 -1 16 17 36 44 46 20 7 20 8 1 21 -10 8 -22 12 -26 10 -4 -3
-13 2 -19 9 -8 10 -9 16 -1 21 5 3 10 1 10 -4 0 -20 18 -11 24 11 8 32 -9 45
-32 25 -25 -23 -41 -21 -35 3 4 14 0 20 -11 20 -9 0 -16 4 -16 9 0 15 -33 22
-42 9 -6 -11 -8 -10 -8 0 0 7 -4 10 -10 7 -6 -4 -10 6 -10 24 0 18 -8 35 -19
43 -22 16 -21 47 5 84 21 33 26 104 7 104 -7 0 -13 5 -13 11 0 8 -4 8 -15 -1
-11 -9 -19 -7 -42 14 -33 31 -18 34 46 11 38 -13 42 -13 49 3 5 12 9 3 12 -26
l5 -43 40 37 c22 21 34 34 27 30 -8 -5 -16 2 -22 19 -13 34 -13 55 0 35 9 -13
12 -13 21 2 8 15 13 16 32 5 12 -6 24 -13 26 -14 1 -1 -4 -12 -13 -25 -20 -28
-20 -38 -1 -38 11 0 13 -4 6 -17 -5 -10 -13 -27 -17 -38 -7 -18 -8 -17 -12 8
-4 30 -19 36 -29 11 -3 -9 0 -20 8 -25 12 -7 12 -9 -1 -10 -8 -1 -23 0 -33 1
-15 1 -67 -41 -67 -54 0 -2 11 -7 25 -10 21 -5 24 -11 19 -31 -4 -15 -2 -25 5
-25 6 0 11 -9 11 -21 0 -12 5 -19 13 -16 6 2 11 16 10 31 -2 29 37 63 58 51 8
-6 7 -10 -2 -16 -11 -6 -11 -11 -1 -21 6 -6 12 -32 12 -56 0 -37 3 -43 16 -38
9 4 23 1 30 -5 10 -8 14 -8 14 0 0 6 4 11 10 11 5 0 7 -7 3 -16 -4 -12 -2 -15
8 -12 16 5 25 108 9 108 -6 0 -10 -12 -10 -26 0 -20 -4 -25 -16 -20 -9 3 -20
6 -25 6 -5 0 -9 5 -9 10 0 6 7 10 15 10 9 0 12 6 9 15 -4 10 0 15 13 15 24 0
26 39 3 57 -22 18 -30 16 -30 -7 0 -11 -4 -20 -10 -20 -5 0 -10 6 -10 14 0 8
-3 21 -6 30 -4 11 0 16 14 16 22 0 37 15 45 45 5 19 5 19 12 -3 8 -23 35 -31
35 -9 0 7 -6 22 -14 33 -8 10 -12 29 -10 41 3 11 0 31 -7 44 -9 17 -9 24 0 27
22 7 8 92 -15 92 -8 0 -17 7 -20 15 -4 8 -10 15 -15 15 -6 0 -23 10 -39 22
-37 27 -46 19 -25 -21 8 -17 11 -31 6 -31 -5 0 -11 6 -14 13 -3 9 -9 7 -24 -6
-25 -21 -33 -22 -33 0 0 13 -3 14 -12 5 -7 -7 -20 -12 -29 -12 -26 0 -32 -31
-11 -59 32 -44 34 -51 18 -45 -11 4 -16 0 -16 -15 0 -12 -6 -21 -15 -21 -8 0
-15 6 -15 14 0 8 -10 16 -22 18 -13 2 -24 11 -26 21 -2 10 2 16 10 15 8 -2 12
5 10 19 -2 14 3 23 15 25 16 3 15 6 -6 17 -22 12 -26 11 -42 -10 -14 -19 -20
-21 -33 -10 -8 7 -20 10 -25 7 -21 -13 -22 17 -1 38 21 20 21 20 18 1 -6 -36
27 -28 42 10 7 19 18 35 23 35 5 0 7 -6 4 -13 -4 -10 4 -14 24 -14 16 0 29 4
29 8 0 5 7 6 16 2 25 -9 9 36 -22 64 -29 26 -65 33 -44 8 17 -21 3 -35 -36
-35 -27 0 -34 -4 -34 -20 0 -39 -51 -14 -69 33 -6 14 -6 29 -2 32 5 3 12 -2
15 -11 5 -13 8 -13 19 -2 8 7 16 20 19 28 2 8 13 15 24 16 60 3 62 4 57 24 -6
22 7 26 25 8 9 -9 15 -9 24 0 16 16 38 15 38 -1 0 -7 14 -25 32 -41 30 -26 33
-26 45 -10 7 9 14 22 16 28 3 7 9 7 20 -3 15 -11 17 -11 17 2 0 16 26 30 41
22 5 -4 6 1 3 9 -3 9 -1 16 5 16 6 0 11 4 11 9 0 5 -14 8 -32 7 -28 -1 -33 3
-38 31 -5 23 -3 33 6 37 8 3 14 -1 14 -9 0 -9 10 -15 25 -15 14 0 28 -7 31
-15 9 -21 17 -18 31 10 9 20 8 25 -3 25 -8 0 -14 5 -14 10 0 6 5 10 11 10 6 0
9 7 5 15 -3 9 0 15 9 15 17 0 20 26 4 35 -6 5 -4 12 8 20 13 10 15 17 7 25 -8
8 -15 7 -27 -5 -11 -10 -25 -13 -42 -9 -14 3 -25 7 -25 9 0 1 7 22 15 45 19
55 19 60 -6 60 -13 0 -23 8 -26 21 -3 11 -11 18 -17 16 -41 -17 -46 -18 -46
-8 0 6 6 11 13 11 9 0 9 2 -1 9 -11 6 -11 13 -1 35 10 22 10 29 0 35 -10 6 -9
10 4 15 11 4 14 12 10 26 -4 12 0 26 10 36 10 11 14 25 11 40 -8 31 7 37 29
12 14 -17 15 -25 6 -40 -6 -10 -11 -29 -11 -42 0 -14 -5 -28 -12 -32 -8 -5 -2
-11 17 -16 33 -8 48 5 39 35 -4 14 4 22 35 34 34 13 39 18 29 31 -7 8 -13 31
-13 51 0 31 -3 36 -25 36 -18 0 -24 5 -22 18 2 9 -2 17 -7 17 -12 0 -51 40
-51 52 0 4 5 8 10 8 6 0 10 -7 10 -15 0 -8 4 -15 10 -15 5 0 9 6 7 13 -1 7 8
11 25 10 19 -1 29 4 33 18 4 11 19 28 33 37 15 9 27 24 27 32 0 8 11 17 25 20
15 3 26 14 28 26 2 16 11 20 39 21 19 1 39 7 44 14 6 10 11 10 24 -1 15 -12
19 -11 35 10 10 14 22 21 27 16 4 -5 2 -11 -5 -13 -6 -3 -12 -9 -12 -14 0 -4
6 -6 14 -3 9 4 16 -2 18 -17 3 -22 4 -22 21 -5 16 17 17 16 17 -3 0 -13 -7
-21 -17 -21 -15 0 -16 -2 -3 -9 8 -6 18 -7 24 -4 5 4 7 -1 3 -10 -5 -12 -1
-17 13 -17 27 0 36 -20 11 -27 -11 -3 -23 -14 -26 -24 -7 -22 -18 -24 -46 -9
-23 13 -25 40 -3 40 11 0 14 6 8 23 -9 29 -5 27 -52 30 -33 1 -42 6 -42 20 0
12 -4 16 -12 10 -7 -4 -22 -6 -33 -4 -17 3 -17 1 5 -18 25 -20 25 -20 3 -21
-16 0 -27 -11 -38 -37 -9 -21 -21 -46 -26 -55 -10 -20 -2 -22 50 -12 30 6 31
8 15 25 -20 22 -10 43 14 29 47 -26 47 -28 21 -49 -13 -11 -29 -20 -36 -21 -6
0 -14 -4 -17 -8 -3 -4 15 -8 39 -8 30 1 41 4 35 12 -12 14 8 34 33 34 13 0 17
-5 13 -15 -4 -11 2 -15 20 -15 32 0 66 -18 59 -30 -3 -6 1 -7 11 -3 16 6 15 7
-1 20 -10 7 -15 16 -11 20 3 4 18 -5 32 -19 19 -19 23 -28 13 -33 -8 -6 -10
-4 -4 5 5 8 3 11 -6 8 -8 -3 -13 -11 -11 -17 1 -7 -1 -10 -6 -7 -5 3 -24 1
-43 -5 -55 -17 -149 -18 -149 -2 0 7 -5 13 -11 13 -5 0 -7 -5 -3 -12 4 -6 3
-9 -2 -6 -5 2 -26 12 -46 22 -21 9 -38 21 -38 25 0 16 -45 21 -59 7 -11 -12
-10 -15 8 -21 11 -3 21 -13 21 -21 0 -14 11 -18 38 -15 6 1 12 -7 12 -19 0
-21 24 -28 35 -10 10 16 25 12 19 -5 -4 -10 0 -15 14 -15 11 0 23 -8 27 -18 6
-15 8 -15 18 -1 7 8 27 23 45 31 31 16 32 16 32 -4 0 -27 23 -18 31 13 4 13 7
18 8 10 1 -8 8 -11 21 -8 10 3 20 1 22 -5 2 -6 19 -6 47 1 39 8 44 7 48 -10 6
-23 21 -25 29 -4 4 10 13 13 25 10 11 -4 19 -2 19 4 0 6 6 8 14 5 19 -7 28 22
10 37 -11 9 -11 15 -3 25 6 8 8 22 4 31 -12 28 -13 53 -2 60 6 4 8 -5 5 -21
-5 -24 -2 -26 27 -26 25 0 34 5 39 23 3 12 1 24 -5 26 -6 2 -3 11 7 22 16 18
15 19 -15 36 -17 10 -31 23 -31 30 0 6 -5 15 -12 19 -8 5 -9 -2 -5 -24 7 -35
-10 -44 -33 -17 -10 13 -16 13 -40 0 -26 -14 -40 -11 -40 7 0 4 6 8 13 8 19 0
15 63 -6 78 -9 7 -15 17 -12 22 10 16 -8 40 -30 40 -22 0 -55 23 -55 38 0 3 5
1 12 -6 18 -18 28 -15 28 8 0 13 7 20 19 20 39 0 101 45 101 74 0 18 -15 21
-25 6 -8 -12 -54 20 -55 38 0 6 7 12 15 12 9 0 18 7 22 16 5 13 7 13 14 2 14
-21 11 16 -3 47 -11 24 -28 34 -28 16 0 -5 -7 -12 -16 -15 -23 -9 -56 22 -48
46 3 11 0 18 -8 18 -14 0 -42 56 -39 79 1 7 -2 10 -8 6 -6 -3 -11 -17 -11 -31
0 -14 -7 -27 -15 -30 -22 -9 -18 -24 5 -24 25 0 36 -25 20 -45 -10 -12 -9 -15
8 -15 12 0 24 -5 28 -12 4 -6 3 -8 -3 -5 -5 3 -21 0 -36 -8 -22 -11 -26 -11
-31 1 -3 8 -12 14 -21 14 -8 0 -15 5 -15 10 0 6 -10 8 -24 4 -18 -4 -28 1 -45
21 -16 21 -22 24 -26 13 -3 -8 -5 -19 -3 -24 1 -5 -4 -19 -11 -32 -10 -19 -15
-21 -27 -11 -8 6 -14 18 -14 25 0 17 -22 18 -38 2 -19 -19 -32 8 -21 44 9 32
-5 44 -41 35 -11 -3 -20 -1 -20 4 0 5 -6 9 -14 9 -18 0 -29 27 -13 33 9 3 9 8
-2 20 -11 14 -11 18 3 23 9 3 16 16 16 28 0 11 4 16 8 11 13 -18 93 -49 100
-39 8 11 58 12 69 1 4 -5 2 -17 -5 -27 -10 -16 -8 -23 11 -44 l24 -25 0 49 c0
32 -5 51 -14 54 -7 3 -13 12 -13 20 0 12 -12 15 -52 14 -108 -2 -185 8 -203
26 -22 21 -45 6 -26 -17 6 -8 10 -25 9 -38 -2 -18 1 -23 15 -21 15 3 18 -2 15
-24 -2 -15 -9 -29 -16 -32 -7 -2 -10 2 -6 12 4 10 1 16 -9 16 -9 0 -21 8 -26
18 -9 15 -10 14 -11 -8 0 -14 -9 -32 -20 -40 -24 -17 -26 -55 -4 -64 16 -6 16
-30 -1 -24 -5 2 -12 -10 -15 -27 -4 -21 -11 -31 -28 -33 -27 -4 -30 -22 -3
-22 15 0 18 -5 14 -22 -5 -18 -3 -21 7 -11 17 16 40 5 41 -21 1 -18 2 -18 6
-3 3 11 -4 27 -17 39 -21 20 -22 45 -1 41 6 -2 11 3 11 10 0 22 16 38 32 32
10 -4 13 -15 10 -37 -3 -21 -1 -29 7 -24 17 11 13 -13 -4 -31 -20 -19 -13 -27
14 -18 15 5 21 15 21 37 0 22 6 31 21 35 12 4 22 17 26 35 4 20 9 26 16 19 7
-7 6 -15 -3 -26 -18 -21 -8 -28 23 -16 33 13 46 -3 23 -28 -9 -10 -16 -22 -16
-27 0 -10 97 -10 107 0 11 11 23 6 23 -9 0 -8 9 -15 20 -15 17 0 20 7 20 39 0
42 25 76 36 48 3 -9 2 -21 -2 -28 -4 -7 -3 -9 2 -6 6 3 16 2 24 -3 12 -7 12
-13 0 -34 -9 -18 -17 -23 -25 -16 -8 7 -15 2 -23 -16 -15 -31 -15 -51 -2 -59
7 -4 9 2 4 19 -7 30 15 36 37 10 10 -12 10 -20 1 -34 -6 -11 -8 -21 -4 -24 12
-7 14 -86 3 -86 -6 0 -8 7 -5 15 4 8 1 15 -6 15 -7 0 -10 6 -7 14 5 13 -33 66
-47 66 -12 0 2 -44 17 -55 21 -15 22 -34 2 -41 -8 -4 -15 -12 -15 -20 0 -8 -6
-14 -12 -14 -19 1 -70 49 -63 59 3 5 -7 10 -22 10 -58 2 -63 4 -63 27 0 12 4
24 9 26 5 2 13 15 16 31 6 24 5 27 -19 27 -19 0 -26 5 -26 20 0 24 -1 25 -42
2 -18 -10 -37 -17 -43 -15 -5 1 -15 -8 -22 -22 -10 -23 -9 -25 13 -25 18 0 24
-5 24 -23 0 -27 -25 -65 -36 -55 -4 4 -1 14 6 23 10 12 10 15 -4 15 -9 0 -16
-5 -16 -11 0 -5 -13 -15 -30 -20 -16 -6 -30 -17 -30 -25 0 -8 -5 -14 -10 -14
-6 0 -5 -14 4 -34 8 -19 10 -39 6 -47 -13 -19 -1 -32 17 -18 9 8 17 9 21 3 4
-5 19 -15 35 -23 15 -8 27 -20 27 -28 0 -17 -20 -17 -20 0 0 6 -5 4 -11 -5 -5
-10 -17 -18 -24 -18 -17 0 -19 12 -5 26 6 6 6 15 0 24 -9 13 -11 13 -20 0 -5
-8 -10 -23 -10 -32 0 -10 -5 -15 -13 -12 -18 6 -16 -44 2 -55 10 -7 10 -10 1
-16 -7 -4 -15 -3 -19 2 -10 15 -64 -4 -79 -27 -12 -19 -10 -25 12 -47 16 -16
32 -23 42 -19 15 6 15 3 -1 -21 -10 -16 -24 -32 -32 -36 -7 -4 -13 -15 -13
-22 0 -18 -9 -19 -44 -5 -14 5 -26 16 -26 25 0 18 17 20 22 4 2 -7 10 -10 17
-8 9 3 6 12 -9 32 -28 35 -43 30 -47 -14 -2 -19 -4 -43 -5 -54 -3 -17 2 -20
34 -18 34 2 37 1 36 -27 -1 -24 -6 -30 -30 -35 -26 -6 -40 -25 -17 -25 5 0 7
-5 3 -11 -4 -8 -9 -8 -17 0 -17 17 -30 13 -24 -9 6 -25 -12 -26 -55 -4 l-30
16 22 15 c11 8 30 13 42 10 43 -12 66 25 33 53 -8 7 -15 19 -15 26 0 9 -12 14
-35 14 -41 0 -47 21 -13 38 l23 11 -25 1 c-14 1 -19 4 -12 7 6 2 12 9 12 13 0
14 -57 69 -64 63 -3 -4 -6 -1 -6 5 0 7 6 12 14 12 7 0 28 3 45 6 24 5 31 3 31
-9 0 -9 -6 -15 -12 -13 -7 1 -10 1 -5 -1 4 -3 7 -16 7 -29 0 -15 6 -24 15 -24
8 0 15 5 15 10 0 6 8 10 18 11 13 1 11 3 -5 7 -22 7 -22 7 -3 32 15 20 21 23
31 13 7 -7 19 -13 26 -13 10 0 11 4 2 19 -9 14 -9 25 2 50 14 32 39 42 39 16
0 -10 10 -15 27 -15 21 0 24 3 15 12 -15 15 -16 31 -1 22 9 -5 10 1 5 22 -9
34 -17 44 -23 26 -3 -6 -9 -10 -14 -6 -17 10 -49 -7 -49 -27 0 -11 -5 -17 -10
-14 -6 4 -8 11 -5 16 4 5 -1 9 -11 9 -15 0 -15 -2 1 -27 17 -25 17 -27 0 -39
-11 -8 -29 -11 -43 -7 -21 5 -24 3 -18 -12 6 -16 5 -17 -18 -1 -31 20 -36 20
-36 1 0 -8 -9 -15 -20 -15 -18 0 -70 -40 -52 -40 4 0 1 -4 -6 -9 -9 -5 -23 2
-42 21 -25 24 -33 27 -50 18 -16 -9 -22 -8 -26 5 -4 8 -11 15 -18 14 -6 -1
-20 2 -30 6 -26 11 -79 -49 -70 -80 10 -31 23 -40 30 -21 4 11 2 21 -6 26 -7
4 -9 13 -6 19 11 16 46 13 46 -4 0 -8 7 -15 15 -15 18 0 20 -36 2 -43 -7 -3
-5 -6 6 -6 21 -1 24 -39 3 -47 -17 -6 -10 -40 10 -48 8 -3 14 -20 14 -41 0
-23 5 -35 13 -35 20 0 50 -37 42 -50 -4 -7 1 -7 14 2 31 19 34 38 7 38 -19 0
-22 4 -18 25 3 18 0 25 -11 25 -9 0 -19 5 -23 12 -5 7 -2 9 9 5 20 -7 44 18
25 26 -10 4 -8 9 5 17 9 6 15 15 12 21 -4 5 5 9 19 9 28 0 59 41 37 48 -19 6
-1 22 25 22 29 0 41 -24 24 -46 -10 -11 -10 -18 -2 -26 17 -17 15 -38 -3 -38
-8 0 -15 6 -15 14 0 22 -54 13 -58 -9 -3 -13 1 -15 17 -10 21 6 61 -9 61 -25
0 -5 -8 -16 -17 -25 -13 -14 -14 -21 -5 -36 7 -10 12 -27 12 -36 0 -15 -2 -16
-10 -3 -9 13 -11 13 -20 0 -5 -8 -10 -23 -10 -32 0 -10 -5 -18 -11 -18 -6 0
-24 -9 -40 -21 -24 -17 -33 -19 -45 -9 -8 7 -18 9 -22 5 -4 -4 -1 -10 5 -12 7
-3 13 -17 13 -31 0 -34 34 -59 55 -42 8 7 19 9 26 5 8 -6 8 -10 -2 -16 -15 -9
-5 -15 36 -21 12 -2 21 -12 23 -25 2 -15 8 -20 18 -16 8 3 21 -3 29 -13 11
-15 16 -17 26 -6 18 17 39 15 39 -3 0 -8 -9 -15 -20 -15 -14 0 -18 -5 -13 -16
3 -9 0 -20 -7 -24 -20 -12 -2 -30 30 -30 30 0 47 14 30 25 -15 9 -12 25 4 25
8 0 16 7 20 15 3 8 17 20 31 27 28 12 33 33 11 41 -15 6 -19 64 -6 72 4 3 21
6 38 7 20 1 32 9 35 20 5 19 27 25 27 8 0 -6 11 -3 25 6 23 15 25 15 31 -1 4
-9 3 -20 -3 -24 -5 -3 -12 -14 -16 -24 -6 -15 -10 -16 -27 -5 -18 11 -23 10
-34 -4 -7 -10 -15 -15 -18 -12 -3 3 -5 -6 -4 -20 0 -14 6 -25 11 -24 6 1 27
-6 47 -14 35 -16 36 -18 25 -42 -12 -27 -31 -34 -42 -16 -3 5 -15 10 -27 10
-14 0 -18 5 -14 15 3 9 0 15 -9 15 -10 0 -15 -11 -15 -33 0 -40 -27 -84 -43
-68 -16 16 -24 14 -30 -9 -3 -13 -10 -18 -21 -14 -9 3 -16 1 -16 -5 0 -20 -29
-11 -46 15 -16 23 -19 24 -33 10 -14 -15 -13 -18 7 -32 28 -19 29 -44 2 -44
-11 0 -23 -7 -26 -15 -5 -11 -19 -14 -60 -11 -42 3 -56 0 -63 -13 -5 -9 -13
-13 -17 -9 -3 4 -15 3 -25 -2 -14 -8 -19 -6 -24 10 -8 24 -30 26 -39 4 -27
-71 37 -130 91 -82 10 10 30 19 44 20 23 3 24 1 21 -41 -3 -37 -1 -43 12 -38
11 4 16 1 16 -12 0 -24 -25 -46 -35 -31 -3 6 -11 8 -16 4 -16 -10 72 -66 113
-71 31 -5 38 -3 38 12 0 13 -6 16 -21 12 -18 -5 -20 -2 -15 18 3 13 2 27 -4
30 -21 13 -9 23 29 23 34 1 40 -2 44 -26 4 -17 0 -31 -9 -38 -8 -6 -14 -16
-14 -21 0 -6 -11 -21 -23 -35 -29 -31 -67 -46 -67 -26 0 7 -4 19 -9 26 -7 12
-12 12 -31 0 -19 -11 -23 -11 -27 0 -3 9 -10 4 -19 -13 -17 -33 -11 -45 21
-45 20 0 23 -4 19 -27 -3 -15 -11 -31 -17 -36 -9 -7 -9 -10 1 -14 6 -2 9 -9 6
-14 -3 -6 0 -17 7 -25 21 -26 19 -61 -6 -88 -12 -14 -25 -31 -27 -38 -3 -8
-11 -3 -22 15 -15 22 -21 25 -37 16 -21 -11 -26 -45 -6 -52 7 -4 4 -8 -8 -12
-41 -12 -56 -75 -19 -75 8 0 19 -12 24 -26 13 -34 -10 -80 -45 -86 -27 -6 -44
7 -23 15 10 4 9 6 -1 6 -8 1 -23 -6 -32 -15 -17 -15 -20 -15 -45 1 -22 14 -28
15 -35 4 -8 -11 -11 -11 -20 4 -6 9 -15 14 -21 11 -6 -4 -48 -8 -94 -8 -46 -1
-86 -5 -89 -8 -4 -3 -21 -2 -38 3 -17 5 -33 5 -36 1 -8 -10 -91 -11 -91 -1 0
5 -12 4 -26 -1 -16 -7 -32 -7 -44 0 -12 7 -20 6 -22 -1 -2 -7 -17 -7 -43 -1
-22 4 -58 7 -80 7 -22 -1 -43 3 -47 9 -6 8 -8 8 -8 -1 0 -7 -13 -10 -35 -9
-26 3 -35 -1 -35 -12 0 -13 -3 -12 -15 4 -8 10 -15 14 -15 8 0 -19 -43 -25
-53 -8 -4 8 -12 12 -18 9 -5 -4 -15 -3 -21 1 -20 12 -52 13 -66 1 -10 -8 -16
-7 -22 3 -7 12 -11 12 -25 0 -14 -12 -18 -12 -26 1 -8 12 -10 12 -18 0 -6 -9
-18 -11 -35 -7 -17 4 -26 2 -26 -5 0 -8 -4 -8 -15 1 -12 10 -18 10 -30 0 -12
-10 -16 -9 -21 4 -8 20 -24 21 -24 1 0 -18 -26 -20 -34 -2 -5 9 -7 9 -12 -1
-4 -9 -10 -10 -18 -3 -8 7 -24 7 -44 2 -21 -6 -34 -6 -38 1 -4 6 -10 5 -15 -3
-6 -10 -11 -11 -16 -3 -5 6 -15 11 -23 12 -8 0 -28 2 -45 3 -16 1 -45 -1 -62
-5 -18 -4 -33 -4 -33 1 0 5 -22 8 -49 7 -62 -3 -77 6 -61 36 7 13 9 36 5 56
-3 19 -2 34 3 34 6 0 13 7 16 16 5 12 1 14 -17 9 -15 -4 -18 -3 -8 3 8 6 11
17 6 31 -4 13 -1 28 6 37 9 12 9 19 0 38 -10 19 -10 27 0 44 10 16 11 29 3 49
-8 21 -7 36 2 58 7 17 13 51 14 76 0 43 -2 47 -27 52 -16 3 -59 15 -98 27 -38
12 -90 25 -115 28 l-45 7 -3 49 c-4 65 26 189 43 182 9 -3 16 8 20 35 4 21 11
41 16 45 5 3 6 11 2 17 -5 9 -3 9 8 0 12 -10 21 -9 42 2 15 7 29 10 32 5 5 -7
-10 -23 -25 -26 -19 -4 -52 -23 -41 -23 10 -1 12 -10 7 -32 -5 -29 -4 -30 12
-18 9 7 18 14 20 15 2 1 -1 12 -8 23 -14 28 1 27 19 -1 12 -19 11 -23 -3 -33
-9 -7 -16 -15 -16 -18 0 -11 34 6 51 25 10 11 23 16 33 12 16 -6 22 12 18 59
-1 9 3 17 8 17 6 0 10 9 10 19 0 11 5 23 10 26 6 3 10 11 10 17 0 6 -14 -5
-31 -23 -20 -22 -32 -30 -36 -21 -2 6 -14 12 -26 12 -39 0 -45 12 -42 75 2 33
1 54 -2 48 -3 -9 -10 -10 -22 -3 -18 9 -31 4 -31 -12 0 -5 5 -6 11 -3 6 4 9 0
7 -11 -2 -11 2 -18 10 -16 15 3 15 -9 -1 -40 -7 -14 -17 -23 -23 -21 -7 2 -14
-8 -18 -22 -7 -28 -24 -33 -32 -10 -4 8 -10 12 -16 9 -5 -3 -7 -12 -4 -20 4
-12 2 -12 -15 -4 -17 10 -18 14 -8 28 11 14 11 15 -1 5 -21 -19 -30 -16 -30
11 0 35 -10 56 -27 56 -10 0 -13 -6 -9 -16 4 -9 2 -22 -4 -29 -8 -10 -5 -19
12 -35 l23 -23 -27 7 c-29 7 -49 -10 -24 -20 9 -3 16 -10 16 -15 0 -4 -7 -6
-15 -3 -17 7 -21 -21 -5 -31 6 -3 5 -15 -2 -31 -8 -17 -8 -28 -2 -32 13 -9 34
-125 34 -187 0 -44 -1 -47 -22 -41 -70 19 -127 18 -165 -1 -21 -11 -62 -26
-90 -32 -57 -14 -62 -31 -9 -31 18 0 59 -9 91 -20 37 -13 84 -20 129 -20 94 0
75 -19 -25 -24 -41 -2 -81 -5 -89 -6 -28 -4 35 -18 85 -19 110 -3 90 -35 -28
-46 -68 -7 -77 -9 -65 -22 11 -10 47 -14 137 -16 94 -2 124 -6 131 -17 14 -23
-11 -31 -113 -36 -144 -8 -181 -14 -168 -27 7 -7 65 -14 146 -17 215 -9 204
-47 -15 -57 -138 -6 -151 -8 -123 -28 13 -9 47 -13 109 -12 94 1 154 -8 154
-24 0 -22 -65 -31 -232 -32 -98 -1 -178 -5 -178 -9 0 -5 19 -8 43 -8 23 0 85
-7 137 -15 52 -8 118 -15 145 -16 28 -1 -11 -6 -85 -11 -80 -5 -146 -4 -161 1
-23 8 -26 7 -22 -9 6 -22 -16 -38 -27 -19 -7 10 -11 10 -24 0 -12 -10 -19 -11
-30 -2 -14 12 -73 5 -82 -10 -3 -5 -9 -7 -13 -4 -16 10 -131 14 -131 4 0 -5
-4 -9 -10 -9 -5 0 -10 7 -10 15 0 18 -16 20 -26 3 -5 -7 -12 -5 -22 8 -8 10
-16 14 -18 9 -5 -12 -85 -12 -103 -1 -6 4 -11 3 -11 -2 0 -5 -19 -8 -42 -6
-23 2 -47 -1 -55 -7 -8 -7 -18 -8 -26 -2 -6 5 -29 9 -49 9 -24 -1 -38 4 -38
12 0 14 -16 16 -25 2 -9 -14 -98 -2 -111 16 -15 19 -21 18 -27 -5 -7 -26 -44
-17 -50 13 -4 20 -4 19 -6 -3 -1 -17 -5 -21 -17 -17 -9 3 -22 6 -30 6 -8 0
-14 10 -14 25 0 34 -18 32 -23 -3 -4 -25 -4 -25 -6 6 0 17 4 32 9 32 17 0 12
97 -7 115 -13 14 -14 18 -3 25 17 10 32 119 20 139 -8 14 -9 13 -10 -3 0 -14
-3 -17 -10 -10 -15 15 -17 207 -2 212 9 3 8 9 -3 25 -8 12 -14 31 -14 42 1 17
2 17 6 3 2 -10 8 -18 13 -18 14 0 23 22 13 29 -6 3 -12 49 -15 101 -2 52 -2
87 0 78 2 -10 7 -18 12 -18 4 0 6 35 3 78 -3 42 -1 93 4 112 6 19 7 60 3 90
-6 47 -4 57 11 71 21 18 26 49 8 49 -8 0 -8 4 -1 13 5 6 12 37 15 67 3 30 8
66 12 80 8 30 27 320 26 405 0 33 6 85 14 116 8 31 15 93 15 137 0 66 4 84 22
107 19 25 37 89 55 198 3 21 12 41 19 44 8 3 14 14 14 24 0 11 7 31 16 44 9
14 14 31 11 39 -3 8 7 31 23 53 16 21 30 43 30 49 0 6 6 17 14 23 8 6 19 31
25 56 6 24 22 56 35 70 14 15 22 33 19 41 -3 8 3 17 13 21 11 4 28 15 39 25
16 16 17 20 6 28 -12 7 -12 10 0 23 8 8 25 18 37 21 12 4 22 13 22 21 0 14 88
105 102 105 4 0 8 7 8 15 0 8 4 15 10 15 12 0 80 70 80 83 0 12 31 36 47 37 6
0 29 17 50 38 62 59 93 83 128 98 18 7 42 25 53 39 11 14 25 25 31 25 10 0 67
35 81 50 3 3 16 11 30 17 19 9 -139 12 -682 12 l-708 1 0 -2000z m6162 1301
c15 -6 35 -8 43 -4 13 4 15 0 9 -23 l-7 -29 25 23 c13 12 33 22 44 22 11 0 25
5 32 12 9 9 9 5 0 -15 -7 -15 -17 -27 -21 -27 -5 0 -6 -4 -3 -9 4 -5 19 -3 37
6 40 20 48 9 18 -24 l-24 -26 22 6 c13 3 25 1 28 -3 10 -15 110 43 109 63 -2
13 3 16 17 12 14 -5 17 -2 13 9 -4 10 1 18 10 22 23 9 32 -2 17 -20 -9 -11 -9
-16 1 -22 9 -6 4 -10 -17 -14 -27 -5 -30 -9 -27 -40 2 -19 9 -41 15 -49 9 -11
14 -9 29 9 14 17 16 26 7 36 -13 16 -14 15 24 20 15 1 27 -1 27 -7 0 -5 -7 -9
-15 -9 -9 0 -15 -6 -13 -12 3 -13 -15 -66 -33 -100 -12 -24 -11 -28 5 -28 8 0
17 -3 19 -7 6 -10 -49 -11 -58 -1 -4 3 1 17 10 31 15 23 15 25 -4 30 -13 3
-21 -1 -24 -15 -7 -26 -33 -17 -30 11 3 27 -17 28 -24 1 -4 -15 -9 -17 -23
-10 -26 14 -33 12 -26 -5 3 -8 1 -15 -4 -15 -6 0 -10 -9 -10 -21 0 -16 -4 -19
-20 -14 -14 5 -20 2 -20 -9 0 -21 -6 -20 -31 3 -22 20 -18 44 5 35 22 -8 30
16 10 31 -10 7 -23 12 -29 11 -5 -2 -7 -1 -2 2 14 8 27 41 21 56 -3 9 -18 16
-32 16 -14 0 -35 9 -47 20 -13 12 -28 17 -42 14 -17 -5 -20 -11 -14 -32 4 -14
14 -27 22 -30 10 -2 11 -1 2 5 -7 5 -9 14 -5 20 5 8 15 6 32 -8 20 -15 22 -21
11 -28 -9 -6 -10 -11 -2 -15 13 -9 15 -43 2 -51 -5 -3 -22 6 -36 21 -14 14
-29 23 -33 19 -4 -4 1 -12 10 -19 18 -13 21 -85 3 -76 -5 3 -10 11 -10 18 0 7
-15 21 -34 33 -33 20 -33 20 -15 41 14 15 16 22 7 25 -7 3 -13 12 -13 20 0 12
-3 13 -14 3 -8 -6 -12 -18 -9 -26 3 -8 -1 -21 -8 -30 -10 -13 -10 -17 2 -24
11 -7 11 -12 2 -21 -9 -9 -19 -9 -41 0 -27 11 -29 16 -25 50 4 26 0 41 -11 50
-20 17 -21 37 -1 45 14 5 14 9 -1 31 -17 27 -10 50 7 25 8 -11 12 -12 16 -2 6
16 40 16 45 0 3 -8 9 -5 16 8 12 23 36 24 84 5z m-1172 -37 c0 -8 5 -14 11
-14 6 0 8 -8 4 -19 -3 -11 -1 -22 5 -26 5 -3 10 -2 10 3 0 5 18 14 40 21 36
11 43 10 67 -9 14 -11 34 -20 44 -20 14 0 19 -7 19 -30 0 -23 -4 -30 -16 -28
-25 5 -28 -19 -3 -25 23 -6 55 8 76 33 11 13 12 12 6 -5 -3 -11 -11 -23 -17
-27 -7 -5 -4 -8 7 -8 9 0 17 5 17 11 0 5 5 7 11 3 6 -3 8 -16 5 -29 -7 -28 2
-37 25 -24 27 14 38 -17 13 -36 -11 -8 -14 -15 -8 -15 5 0 15 5 22 12 18 18
25 2 10 -24 -7 -12 -20 -23 -28 -23 -10 0 -14 -9 -13 -29 3 -35 10 -43 25 -28
18 18 35 14 42 -10 8 -26 8 -26 41 57 11 28 18 36 24 26 5 -8 16 -11 30 -6 12
4 21 2 21 -4 0 -6 -7 -11 -15 -11 -8 0 -15 -4 -15 -9 0 -13 26 -21 36 -11 5 5
18 2 29 -6 15 -11 17 -17 7 -23 -15 -9 -6 -37 21 -66 18 -20 18 -20 -3 -23
-12 -2 -19 -9 -17 -16 3 -7 1 -19 -4 -27 -14 -23 -34 6 -34 51 0 27 -4 40 -13
40 -7 0 -20 7 -28 15 -25 24 -36 18 -29 -15 4 -19 3 -30 -4 -30 -6 0 -11 8
-11 17 0 13 -3 14 -11 6 -8 -8 -7 -17 3 -32 12 -17 13 -28 4 -56 -6 -19 -15
-35 -20 -35 -4 0 -5 7 -2 16 3 9 9 28 12 42 5 25 4 25 -9 10 -21 -27 -30 -22
-25 14 4 26 3 28 -7 15 -17 -23 -27 -21 -55 8 -17 18 -20 28 -13 37 7 8 7 22
2 36 -7 18 -14 21 -34 16 -19 -5 -25 -2 -25 10 0 9 4 16 9 16 5 0 7 10 4 21
-5 18 -3 20 16 14 21 -6 30 8 11 20 -6 4 -8 10 -5 15 6 10 -7 20 -32 25 -10 2
-30 6 -45 10 -21 5 -26 3 -25 -11 1 -10 -6 -20 -15 -22 -20 -4 -41 55 -26 75
5 7 5 14 -1 17 -5 4 -12 -3 -16 -13 -7 -23 -31 -18 -38 8 -2 10 -18 21 -36 24
-25 5 -31 11 -31 32 0 14 -4 25 -10 25 -5 0 -10 -11 -10 -24 0 -13 -5 -26 -11
-28 -14 -5 5 -46 29 -64 12 -9 12 -12 -2 -23 -9 -8 -16 -19 -16 -25 0 -6 4 -4
9 3 17 26 37 -33 23 -64 -7 -14 -12 -35 -12 -47 0 -18 2 -19 17 -7 14 12 16
12 11 -1 -3 -8 -14 -15 -26 -15 -12 0 -21 -4 -21 -9 1 -18 -30 -26 -55 -14
-30 13 -35 32 -7 23 15 -5 18 -2 14 13 -3 13 1 19 14 18 10 -1 19 3 20 8 1 5
7 12 14 17 10 6 9 12 -6 28 -17 20 -20 20 -36 5 -10 -9 -23 -13 -29 -9 -6 4
-17 -1 -24 -11 -13 -17 -15 -17 -30 -1 -10 9 -22 17 -27 17 -17 0 -9 -29 11
-40 11 -6 18 -15 15 -21 -4 -5 -1 -9 4 -9 13 0 15 -27 2 -32 -5 -1 -6 -17 -4
-35 4 -22 9 -30 20 -26 9 4 16 -2 20 -16 4 -15 12 -20 27 -17 11 2 15 1 8 -1
-9 -3 -12 -13 -8 -29 4 -14 2 -24 -4 -24 -5 0 -10 7 -10 15 0 22 -18 18 -44
-10 -26 -28 -41 -33 -32 -10 3 8 -6 26 -20 40 -30 30 -34 31 -35 8 -1 -17 -2
-17 -6 0 -2 9 -9 17 -14 17 -5 0 -8 15 -8 33 2 30 2 30 6 4 5 -33 23 -26 23 9
0 13 5 24 10 24 6 0 10 7 10 15 0 8 8 15 18 15 12 0 14 2 4 8 -7 5 -10 17 -7
28 6 19 6 19 -9 0 -9 -11 -16 -26 -16 -33 0 -19 -10 -16 -37 9 -13 12 -26 18
-30 14 -5 -4 0 -14 10 -21 18 -13 18 -15 0 -64 -12 -34 -22 -50 -31 -46 -8 3
-21 5 -29 5 -11 0 -14 7 -9 25 6 24 -1 30 -29 26 -5 -1 5 10 23 24 17 15 32
32 32 38 0 7 10 17 21 22 24 11 72 91 64 106 -4 5 1 9 9 9 20 0 20 14 1 34
-14 13 -14 16 2 24 10 5 24 7 31 5 7 -3 19 0 26 7 16 13 32 -3 20 -21 -4 -8 1
-9 16 -4 l23 7 -21 -22 c-26 -28 -16 -55 22 -58 28 -2 36 15 11 24 -20 8 -19
24 1 24 11 0 15 6 11 20 -3 10 1 24 9 31 17 14 9 30 -11 22 -12 -4 -15 4 -14
38 1 24 4 34 6 22 5 -26 33 -32 33 -8 0 9 7 18 15 21 8 4 15 17 15 31 0 13 4
21 10 18 6 -3 10 -13 10 -21z m530 -68 c0 -8 8 -17 18 -21 16 -6 16 -7 0 -19
-11 -8 -14 -17 -8 -26 7 -12 15 -9 38 13 25 25 30 26 36 11 5 -14 9 -14 23 -3
14 12 15 11 8 -11 -4 -14 -13 -28 -19 -33 -7 -5 -5 -12 9 -23 18 -13 20 -13
23 0 2 9 8 16 13 16 5 0 9 6 9 14 0 24 16 27 39 7 24 -21 28 -41 7 -41 -20 0
-38 -52 -30 -86 6 -28 6 -28 -10 -9 -17 20 -17 19 -12 -6 4 -17 0 -31 -9 -39
-10 -9 -15 -9 -15 -1 0 6 -11 11 -25 11 -28 0 -32 12 -10 30 9 7 15 29 15 52
0 33 -3 39 -16 34 -10 -4 -22 1 -29 11 -17 22 -24 16 -28 -25 -5 -41 -9 -44
-41 -36 -28 7 -36 24 -11 24 19 0 19 16 0 24 -18 7 -17 93 1 100 7 3 10 14 7
25 -3 12 -1 21 6 21 6 0 11 -6 11 -14z m361 -89 c-8 -10 -7 -19 3 -32 12 -17
17 -18 41 -7 33 15 43 9 24 -14 -11 -14 -10 -17 4 -25 23 -13 21 -25 -3 -32
-11 -3 -20 -12 -20 -20 0 -9 -8 -15 -17 -15 -10 1 -30 -1 -45 -5 -25 -7 -27
-9 -15 -29 6 -13 18 -28 26 -34 11 -8 11 -13 2 -19 -7 -4 -18 -2 -24 4 -6 6
-19 11 -29 11 -25 0 -37 49 -14 62 23 13 20 31 -4 23 -27 -9 -26 16 1 34 18
11 23 11 30 0 4 -8 12 -10 16 -5 4 4 0 14 -10 21 -13 9 -15 15 -7 20 7 5 9 20
5 41 -5 32 -4 34 21 34 21 0 24 -3 15 -13z m559 -48 c0 -5 5 -7 10 -4 18 11
23 -25 6 -50 -9 -13 -16 -34 -16 -46 0 -17 -4 -20 -24 -15 -14 3 -28 1 -31 -5
-4 -6 -14 -8 -22 -5 -10 4 -13 0 -11 -12 2 -9 13 -18 26 -20 24 -4 25 -6 16
-39 -4 -14 -14 -23 -25 -23 -12 0 -16 5 -13 15 4 8 -1 17 -10 21 -9 3 -16 17
-16 30 0 17 -6 24 -20 24 -11 0 -20 5 -20 10 0 6 5 10 11 10 5 0 7 5 4 11 -4
6 2 19 14 30 12 11 21 24 21 29 0 5 7 7 15 4 10 -4 15 0 15 11 0 11 5 15 14
12 8 -3 17 1 20 9 6 16 36 19 36 3z m-1277 -35 c14 -5 17 -14 14 -31 -3 -15 1
-27 9 -30 16 -6 19 -33 4 -33 -5 0 -10 -7 -10 -15 0 -8 5 -15 10 -15 6 0 10 7
10 15 0 19 7 19 26 1 9 -10 10 -16 2 -18 -8 -3 -8 -9 0 -25 9 -17 9 -22 -3
-27 -9 -3 -12 -12 -8 -22 4 -10 -4 -24 -23 -39 l-28 -22 42 -27 c41 -26 56
-44 27 -32 -8 3 -18 -1 -22 -9 -9 -15 -53 -10 -53 6 0 14 -28 11 -34 -3 -4 -9
-5 -8 -4 2 2 25 -14 94 -25 108 -9 11 -7 13 8 11 27 -5 45 8 38 26 -6 18 -30
20 -35 3 -7 -19 -58 7 -58 29 0 13 3 14 12 5 15 -15 37 13 38 49 0 23 4 26 25
21 15 -2 25 0 25 7 0 6 -9 11 -20 11 -15 0 -20 7 -20 28 0 32 9 45 24 37 6 -3
19 -8 29 -11z m877 -214 c11 -21 -3 -29 -15 -9 -8 13 -35 -35 -35 -62 0 -21
26 -26 33 -6 2 6 8 8 13 4 5 -4 2 -12 -5 -17 -9 -5 -14 -23 -13 -48 2 -37 0
-39 -23 -34 -20 3 -24 1 -19 -11 3 -8 1 -18 -5 -22 -18 -10 -12 -25 9 -25 11
0 20 -7 20 -16 0 -11 -6 -14 -20 -9 -11 4 -20 2 -20 -4 0 -19 -20 -12 -28 9
-5 14 -11 17 -22 10 -13 -8 -12 -11 5 -24 20 -15 20 -15 1 -29 -22 -16 -15
-50 8 -41 11 4 14 -2 14 -25 -1 -36 -6 -38 -24 -13 -13 16 -13 16 -14 0 0 -10
-5 -18 -10 -18 -6 0 -9 -12 -8 -27 4 -36 -26 -42 -58 -12 -13 12 -27 19 -31
15 -4 -4 -1 -11 7 -17 13 -8 13 -11 -2 -23 -19 -14 -24 -46 -8 -46 6 0 10 -4
10 -10 0 -5 -7 -10 -15 -10 -8 0 -15 5 -15 11 0 7 -11 0 -25 -15 -13 -14 -26
-26 -29 -26 -12 0 2 84 15 88 54 17 62 23 51 34 -17 17 -15 25 8 31 12 3 20
14 20 27 0 19 4 20 35 14 28 -5 35 -3 35 10 0 9 -5 16 -11 16 -5 0 -7 5 -4 11
4 5 -1 19 -11 30 -9 10 -15 20 -13 22 2 1 18 10 34 19 40 22 44 45 8 50 -28 4
-24 9 21 22 9 3 12 14 8 32 l-5 28 -15 -22 c-19 -29 -30 -28 -24 3 2 14 8 25
14 25 5 0 18 8 29 19 l20 19 -26 20 c-26 20 -26 21 -6 32 14 7 21 7 21 0 0 -5
4 -10 10 -10 5 0 7 7 4 15 -4 10 0 15 15 15 21 0 20 -19 -1 -47 -5 -7 -4 -13
4 -16 9 -4 7 -11 -9 -25 -11 -10 -18 -24 -15 -30 13 -19 38 11 45 53 5 33 12
70 16 83 4 11 43 -2 51 -18z m-503 -102 c9 -7 10 -16 2 -29 -12 -24 -31 -25
-22 -1 6 15 5 15 -11 2 -10 -8 -22 -25 -27 -38 -5 -13 -13 -20 -19 -17 -5 3
-14 4 -19 0 -12 -7 20 -65 36 -65 6 0 13 -5 15 -11 3 -8 11 -5 22 7 18 18 18
17 11 -6 -14 -48 -33 -69 -57 -63 -13 3 -31 13 -40 21 -17 14 -17 16 0 28 15
12 14 13 -10 14 -18 0 -28 5 -28 15 0 8 7 15 15 15 8 0 15 6 15 14 0 26 -12
46 -26 46 -11 0 -12 4 -4 19 15 28 13 33 -10 26 -14 -5 -20 -2 -20 9 0 9 4 16
9 16 5 0 16 3 25 6 10 4 16 1 16 -9 0 -8 7 -17 15 -21 8 -3 12 -12 9 -21 -7
-18 7 -20 24 -3 18 18 15 28 -8 28 -12 0 -20 7 -20 16 0 11 6 15 20 11 11 -3
23 -1 26 4 6 11 41 3 61 -13z m104 -83 c13 4 19 2 19 -8 0 -8 8 -14 17 -13 13
1 21 -11 28 -42 6 -24 14 -40 18 -36 4 4 7 0 7 -10 0 -13 5 -16 23 -10 12 3
27 11 34 16 8 7 10 3 6 -11 -7 -28 -54 -51 -75 -37 -12 7 -26 6 -51 -6 -38
-18 -47 -15 -47 15 0 16 -5 19 -28 14 -24 -5 -29 -2 -37 26 -13 43 -8 97 9 91
7 -3 21 7 32 21 18 25 19 25 22 5 3 -16 8 -19 23 -15z m-377 -1 c4 -9 -2 -14
-15 -14 -15 0 -19 -5 -15 -16 3 -9 6 -25 6 -35 0 -12 4 -17 11 -14 5 4 19 -1
30 -11 11 -10 19 -12 19 -6 0 14 36 52 49 52 14 0 42 -48 32 -55 -5 -3 -11 0
-13 7 -8 22 -37 -17 -31 -40 5 -22 37 -26 61 -9 17 14 27 1 13 -17 -8 -10 -9
-16 -1 -21 7 -4 3 -14 -11 -29 -28 -29 -83 -25 -74 5 4 11 2 19 -4 19 -5 0
-12 -10 -14 -22 l-4 -23 -8 23 c-8 25 -20 29 -29 7 -8 -22 -29 -18 -61 11 -15
14 -33 23 -41 20 -7 -3 -16 -1 -19 4 -4 6 1 10 10 10 13 0 15 7 9 38 -3 20
-13 47 -20 60 -13 20 -13 23 1 28 8 3 15 14 15 23 1 15 2 15 13 0 11 -15 14
-15 27 0 8 8 14 18 13 22 -4 13 46 -4 51 -17z m1046 -69 c0 -7 7 -15 15 -19 8
-3 18 -23 21 -46 6 -40 17 -50 29 -29 4 6 13 8 21 5 21 -8 17 7 -6 22 -11 7
-20 18 -20 26 0 11 6 12 35 2 45 -16 51 -22 35 -40 -13 -17 -5 -96 10 -96 13
0 40 30 40 45 0 8 7 11 20 8 12 -3 20 0 20 7 0 7 7 10 15 6 8 -3 20 3 28 14 9
13 20 17 35 13 25 -6 31 -43 7 -43 -8 0 -15 -4 -15 -10 0 -27 -43 -52 -93 -54
-29 -1 -58 -5 -65 -10 -8 -5 -12 -1 -12 12 0 31 -11 33 -43 6 -16 -14 -32 -22
-36 -18 -3 4 0 9 7 11 17 6 15 23 -2 23 -8 0 -16 10 -18 23 -2 14 -11 23 -25
25 -13 2 -23 8 -23 14 0 5 6 8 14 5 10 -4 15 4 18 24 3 16 3 29 2 29 -1 0 -9
3 -18 6 -10 4 -16 1 -16 -7 0 -8 -7 -23 -15 -33 -12 -16 -18 -17 -27 -8 -7 7
-20 12 -30 12 -10 0 -18 5 -18 10 0 6 5 10 10 10 6 0 10 9 10 20 0 15 6 19 23
17 14 -1 22 3 22 13 0 16 24 31 38 23 4 -2 7 -10 7 -18z m-319 -177 c14 -19
22 -45 22 -65 -1 -27 2 -33 14 -29 12 5 14 1 9 -19 -4 -14 -2 -25 4 -25 13 0
13 -37 0 -45 -5 -3 -10 -1 -10 5 0 12 -52 2 -61 -13 -9 -13 -29 0 -29 19 0 9
7 14 18 12 11 -2 18 4 20 19 2 14 8 20 18 16 8 -3 14 -1 14 3 -1 14 -24 39
-40 42 -8 2 -18 8 -21 14 -4 7 -13 6 -27 -1 -11 -6 -22 -11 -24 -11 -4 0 -2
53 2 58 1 1 3 7 4 13 1 10 43 38 58 39 4 0 17 -14 29 -32z m-424 -126 c7 -18
32 -41 46 -42 4 0 7 6 7 14 0 14 48 32 58 22 3 -3 0 -17 -6 -31 -10 -22 -9
-25 8 -25 15 0 20 7 20 26 0 19 4 25 18 22 9 -2 17 -12 17 -22 0 -10 10 -26
22 -36 25 -20 42 -70 24 -70 -6 0 -11 6 -11 13 0 9 -10 12 -32 9 -26 -4 -30
-2 -25 12 4 11 3 15 -4 10 -6 -3 -26 9 -45 27 -19 18 -34 27 -34 20 0 -9 -8
-11 -25 -7 -14 4 -25 2 -25 -3 0 -5 14 -12 31 -16 30 -7 56 -46 43 -67 -8 -13
35 -43 64 -43 12 -1 22 5 22 12 0 7 7 13 15 13 8 0 15 -4 15 -9 0 -5 9 -7 20
-4 13 4 20 0 20 -9 0 -16 -36 -58 -50 -58 -15 0 -12 11 8 26 16 13 16 13 -2
14 -11 0 -28 -7 -37 -16 -11 -10 -40 -18 -71 -20 -29 -1 -62 -4 -73 -6 -14 -2
-21 3 -23 18 -4 27 32 39 52 18 8 -8 21 -14 30 -14 13 0 13 3 1 27 -8 15 -12
38 -8 52 6 26 8 25 -46 3 -11 -4 -12 1 -7 21 5 22 3 27 -12 27 -17 0 -39 17
-69 54 -17 20 -16 27 3 54 12 18 19 20 35 11 11 -5 23 -18 26 -27z m693 -31
c0 -6 -8 -16 -19 -23 -10 -7 -22 -24 -26 -37 -6 -21 -5 -23 13 -19 12 3 23 1
25 -6 3 -8 10 -8 26 2 12 7 26 10 30 7 5 -2 12 6 15 20 4 14 10 25 15 25 5 0
7 -9 4 -20 -3 -11 -1 -20 3 -20 18 0 32 16 35 40 4 26 20 31 28 9 2 -6 -1 -9
-7 -5 -8 5 -8 -2 -1 -24 13 -36 26 -39 31 -7 3 25 35 31 56 10 14 -14 13 -28
-4 -28 -6 0 -22 -8 -37 -18 -32 -21 -47 -22 -47 -2 0 8 -4 15 -10 15 -6 0 -6
-9 1 -26 11 -30 3 -46 -12 -24 -8 11 -12 12 -16 3 -7 -18 -23 -16 -23 2 0 15
-12 15 -73 -2 -13 -3 -20 2 -24 15 -3 13 -10 19 -19 15 -17 -6 -46 26 -39 44
2 6 -1 13 -7 15 -21 7 3 28 33 28 16 0 29 5 29 10 0 6 5 10 10 10 6 0 10 -4
10 -9z m556 -1 c8 0 14 -6 14 -14 0 -8 6 -16 13 -19 22 -8 -41 -65 -66 -60
-17 4 -19 2 -8 -5 12 -9 12 -13 2 -26 -11 -13 -11 -19 0 -33 24 -31 43 -42 55
-32 6 5 13 7 16 4 8 -8 -3 -55 -13 -55 -5 0 -6 6 -3 14 5 12 -3 14 -40 11 -27
-3 -46 -1 -46 5 0 6 5 10 10 10 14 0 1 52 -16 66 -18 15 -18 29 2 49 15 15 15
17 0 28 -16 12 -15 15 9 41 16 17 32 26 41 22 9 -3 22 -6 30 -6z m-1340 -75
c-5 -27 -4 -34 7 -29 8 3 20 -2 27 -11 11 -13 10 -18 -5 -29 -16 -12 -16 -13
-1 -19 9 -4 16 -13 16 -22 0 -20 -39 -20 -47 0 -5 14 -8 14 -24 -1 -11 -9 -19
-21 -19 -26 0 -13 28 -9 32 4 3 9 10 7 24 -7 15 -14 15 -17 3 -13 -19 7 -49
-24 -49 -50 0 -12 -3 -14 -8 -4 -6 9 -12 5 -22 -13 -17 -32 -34 -32 -28 0 4
19 1 25 -13 25 -25 0 -24 12 6 44 13 15 24 34 23 44 -3 45 1 52 32 46 17 -4
30 -3 30 1 0 14 -32 45 -47 45 -7 0 -13 9 -13 20 0 25 15 26 25 3 6 -16 8 -15
16 5 4 12 16 22 25 22 13 0 15 -7 10 -35z m959 -136 c0 -13 3 -25 8 -26 19 -7
27 -1 27 17 0 11 7 20 15 20 8 0 15 -4 15 -10 0 -5 14 -10 31 -10 19 0 28 -4
24 -11 -4 -5 1 -20 12 -31 13 -15 15 -22 6 -25 -20 -7 -15 -20 8 -26 15 -4 20
-11 15 -22 -4 -11 2 -19 19 -25 14 -5 25 -15 25 -22 0 -9 -3 -9 -12 0 -18 18
-26 15 -30 -10 -4 -27 -28 -36 -28 -11 0 30 -11 35 -33 16 -19 -17 -20 -17
-14 -1 3 10 2 20 -3 23 -4 3 -10 0 -12 -6 -2 -5 -11 -7 -21 -3 -27 10 -15 28
24 35 19 4 28 7 20 8 -9 1 -12 10 -8 26 5 29 -23 51 -58 46 -28 -4 -37 -15
-29 -35 5 -13 13 -16 30 -12 26 7 32 -5 10 -23 -10 -9 -16 -8 -26 4 -7 8 -21
15 -32 15 -14 0 -18 5 -14 15 3 9 0 15 -9 15 -9 0 -12 6 -9 15 7 16 -11 21
-20 6 -7 -11 -46 -3 -46 9 0 12 58 30 75 24 14 -6 21 12 16 39 -1 5 4 7 11 5
7 -3 13 -16 13 -29z m-85 -86 c2 -2 0 -7 -6 -11 -23 -16 -24 -43 -1 -51 17 -7
24 -4 30 13 6 16 10 17 16 7 5 -8 17 -11 28 -7 25 8 52 -18 28 -28 -21 -8 -19
-29 4 -46 25 -17 18 -30 -17 -30 l-26 0 24 -17 c14 -9 30 -24 36 -32 10 -13
13 -13 28 1 20 21 20 30 0 26 -21 -4 -27 12 -13 32 8 12 12 12 16 2 3 -8 9
-10 16 -3 7 5 24 7 39 4 27 -5 27 -6 13 -34 -9 -15 -21 -26 -28 -24 -6 3 -20
-11 -29 -30 -17 -33 -17 -35 0 -35 11 0 13 -3 6 -8 -7 -4 -13 -16 -15 -27 -3
-13 -13 -21 -29 -22 -15 -1 -18 0 -7 3 23 7 22 24 -3 24 -11 0 -20 6 -20 13 0
24 -22 38 -34 22 -6 -8 -24 -17 -40 -21 -25 -6 -28 -5 -22 11 3 10 2 23 -4 30
-11 13 -3 45 11 45 5 0 9 -6 9 -14 0 -20 21 -31 30 -16 6 9 13 9 28 1 28 -15
32 -14 32 9 0 15 -6 19 -24 18 -14 -1 -36 4 -50 12 -23 12 -28 11 -44 -3 -20
-18 -32 -14 -32 11 0 9 6 12 18 7 13 -5 12 -2 -5 14 -19 18 -21 29 -18 93 2
40 4 74 4 76 1 4 44 -9 51 -15z m-382 -96 c8 3 12 -6 12 -26 0 -23 -4 -29 -15
-25 -8 4 -15 2 -15 -4 0 -13 25 -33 33 -26 11 12 47 -8 45 -24 -2 -10 3 -16
11 -14 16 4 31 -15 31 -40 0 -12 -11 -19 -37 -24 -32 -6 -39 -3 -61 22 -16 19
-27 24 -30 16 -2 -7 -10 -19 -18 -26 -8 -8 -14 -22 -14 -30 0 -9 -7 -16 -17
-16 -24 0 -7 -13 20 -16 18 -2 23 3 23 19 -1 13 5 22 14 22 8 0 14 -8 14 -17
-1 -10 4 -18 12 -18 18 0 28 -20 16 -32 -6 -6 -22 -10 -36 -10 -28 0 -35 -25
-14 -46 18 -18 27 -15 21 8 -3 11 0 20 6 20 6 0 13 -11 17 -25 3 -14 15 -30
25 -36 22 -11 25 -29 5 -29 -7 0 -16 -9 -19 -21 -3 -12 -10 -18 -15 -15 -6 4
-8 -3 -5 -15 4 -12 0 -25 -8 -30 -17 -10 -2 -29 27 -33 12 -2 18 -10 16 -20
-2 -10 2 -24 9 -32 9 -11 8 -15 -5 -20 -9 -3 -16 -13 -16 -21 0 -8 4 -12 9 -9
5 4 4 -5 -2 -18 -10 -21 -13 -22 -24 -7 -11 15 -12 15 -13 -1 0 -10 -4 -18
-10 -18 -5 0 -10 -6 -10 -14 0 -16 -26 -46 -41 -46 -5 0 -3 12 4 28 8 15 15
44 15 65 1 31 -2 37 -19 37 -12 0 -23 8 -26 20 -3 11 -12 20 -20 20 -8 0 -11
-4 -8 -10 3 -5 1 -10 -4 -10 -6 0 -11 8 -11 18 0 26 -11 34 -27 20 -11 -9 -16
-9 -23 2 -16 25 -40 3 -38 -35 3 -35 3 -35 48 -32 36 2 45 -1 42 -14 -1 -9 9
-21 24 -28 15 -6 24 -15 20 -18 -3 -4 -12 -1 -18 5 -18 18 -27 15 -25 -8 1
-11 8 -20 16 -20 11 0 10 -5 -5 -21 -10 -11 -13 -19 -7 -17 6 2 13 -1 15 -7 1
-5 -9 -11 -24 -13 -30 -4 -34 -13 -42 -96 -3 -26 -7 -50 -9 -53 -8 -7 -47 21
-47 33 0 6 -10 19 -22 27 -19 13 -20 16 -5 16 24 1 21 17 -5 25 -22 7 -22 7
-3 15 14 6 24 3 32 -8 11 -14 13 -14 27 4 27 36 20 48 -23 42 -43 -5 -51 3
-51 49 0 18 5 24 21 24 12 0 19 5 16 13 -2 6 -12 12 -23 12 -14 0 -19 8 -20
30 -1 17 1 32 5 35 14 12 31 50 21 50 -5 0 -10 -4 -10 -9 0 -5 -8 -11 -17 -13
-18 -3 -43 31 -43 58 0 8 -7 14 -15 14 -20 0 -19 26 1 34 13 5 14 9 4 22 -7 8
-19 13 -26 10 -6 -2 -15 3 -18 12 -19 52 -23 72 -15 67 4 -3 11 6 15 19 5 22
11 25 38 23 25 -2 31 2 31 18 0 14 8 21 29 25 45 8 42 26 -4 34 -23 3 -45 4
-51 1 -5 -4 -9 -5 -10 -3 -8 36 -8 98 0 98 6 0 12 -8 12 -17 1 -17 2 -17 6 0
2 9 8 17 12 17 17 0 19 -14 5 -34 -14 -23 -10 -36 12 -36 7 0 10 8 8 18 -3 11
4 21 21 29 14 6 25 7 25 3 0 -5 -4 -10 -9 -12 -16 -6 -17 -43 -1 -43 8 0 14 6
12 14 -2 8 3 11 12 8 22 -9 28 5 9 25 -16 18 -5 26 13 9 5 -5 25 -13 45 -19
29 -8 38 -6 48 7 10 14 11 13 8 -6 -3 -15 -1 -20 9 -16 8 3 14 13 14 22 0 10
3 21 7 25 11 11 12 65 1 72 -20 12 13 32 40 25 15 -4 33 -6 40 -4z m-1883 -37
c4 -6 -5 -10 -19 -10 -25 0 -38 -20 -13 -20 6 -1 2 -9 -10 -19 -16 -14 -19
-21 -10 -30 8 -8 8 -11 0 -11 -7 0 -13 -12 -15 -27 -2 -16 -8 -27 -15 -25 -7
1 -13 -4 -13 -11 0 -6 -14 -18 -32 -26 -27 -12 -33 -12 -37 0 -2 7 -17 25 -33
39 -44 39 -36 51 52 76 21 6 23 4 13 -7 -9 -11 -8 -18 1 -32 19 -24 27 -21 20
8 -4 16 -2 25 6 25 8 0 10 8 7 21 -4 15 0 23 13 26 11 3 16 11 13 19 -4 10 4
14 30 14 20 0 39 -4 42 -10z m2354 -256 c21 -10 45 -14 67 -11 30 5 34 3 34
-17 0 -15 7 -26 20 -29 40 -10 -2 -87 -68 -124 -28 -17 -30 -16 -28 4 0 10 -9
22 -21 28 -24 10 -29 20 -14 29 5 3 14 -1 21 -9 7 -8 18 -15 24 -15 16 0 15
42 -1 58 -7 7 -13 20 -13 29 0 12 -7 14 -30 10 -23 -5 -28 -3 -23 8 3 9 0 21
-6 29 -6 7 -8 16 -4 19 8 9 5 10 42 -9z m-938 -37 c-14 -14 -14 -30 0 -22 16
11 59 -4 59 -20 0 -8 -5 -15 -11 -15 -6 0 -9 -6 -6 -14 3 -8 -1 -17 -9 -20
-22 -8 -17 -25 16 -54 17 -15 30 -32 30 -39 0 -7 7 -13 15 -13 8 0 17 -11 21
-24 3 -14 13 -27 21 -30 13 -5 13 -9 2 -23 -11 -13 -11 -17 -1 -20 14 -5 16
-23 3 -23 -5 0 -12 9 -16 19 -3 10 -15 21 -25 24 -13 3 -18 11 -14 21 5 13 -1
16 -29 16 -20 0 -39 -4 -42 -10 -3 -5 1 -10 9 -10 9 0 16 -5 16 -11 0 -16 -22
-6 -34 16 -6 11 -18 25 -26 32 -13 11 -13 12 3 13 10 0 17 8 17 19 0 11 5 21
11 23 7 2 7 12 0 32 -6 15 -9 32 -5 37 3 5 1 9 -5 9 -6 0 -8 7 -4 16 4 10 -1
17 -16 21 -25 6 -25 6 -6 44 9 16 21 27 26 23 7 -4 7 -10 0 -17z m897 -60 c17
-14 15 -30 -3 -23 -9 3 -15 1 -14 -7 5 -39 -2 -57 -22 -57 -15 0 -19 -4 -15
-16 3 -9 6 -21 6 -27 0 -8 4 -7 12 1 7 7 22 12 35 12 13 0 23 5 23 12 0 9 3 9
11 1 13 -13 4 -33 -17 -33 -8 0 -14 -9 -14 -19 0 -11 -7 -27 -16 -36 -23 -22
-10 -30 46 -29 39 1 49 -3 53 -18 4 -14 -7 -24 -49 -44 -38 -18 -54 -31 -54
-45 0 -16 -5 -18 -25 -13 -21 5 -24 3 -22 -19 1 -14 -2 -26 -8 -26 -5 -1 -10
5 -10 12 0 6 -6 16 -12 20 -19 12 -16 24 9 30 12 4 19 9 15 13 -4 4 0 16 9 26
13 14 14 21 5 32 -9 10 -9 16 -1 21 8 5 6 13 -6 26 -9 10 -14 25 -11 33 4 9 2
18 -3 21 -6 4 -10 0 -10 -8 0 -16 -21 -27 -51 -27 -12 0 -19 -7 -19 -20 0 -21
-27 -40 -58 -40 -16 0 -19 7 -17 42 1 24 7 44 15 46 9 3 11 -2 7 -17 -3 -11
-1 -24 4 -27 5 -3 9 12 9 32 0 32 2 35 13 22 8 -12 21 -15 40 -11 25 5 39 23
17 23 -5 0 -10 5 -10 10 0 6 3 9 8 8 4 -1 18 2 30 6 19 6 22 13 18 32 -5 18
-3 22 9 17 13 -4 15 0 9 23 -4 16 -11 34 -16 41 -18 22 51 23 80 0z m-276
-349 c-3 -15 -2 -19 7 -14 6 4 19 2 27 -5 13 -10 17 -10 25 2 6 10 9 7 9 -13
0 -32 25 -59 45 -52 19 8 19 19 -1 39 -9 9 -13 19 -9 23 4 4 10 1 12 -5 3 -7
10 -13 17 -13 17 0 39 -47 25 -55 -5 -4 -7 -15 -4 -26 4 -13 2 -19 -9 -19 -9
0 -16 6 -16 13 0 6 -8 -3 -17 -21 -13 -26 -21 -33 -39 -29 -16 3 -24 -2 -29
-17 -4 -12 -7 -24 -6 -28 2 -16 -15 -7 -28 14 -9 14 -10 23 -3 26 5 1 8 12 5
22 -4 14 0 20 11 20 19 0 21 11 5 27 -9 9 -16 6 -30 -10 l-18 -22 -1 23 c0 16
7 26 20 29 l21 6 -20 18 c-11 11 -27 19 -36 19 -8 0 -15 5 -15 10 0 6 4 10 8
10 5 0 14 11 20 25 14 31 32 33 24 3z m338 -63 c0 -14 -4 -25 -9 -25 -5 0 -11
-9 -14 -20 -3 -12 -14 -20 -25 -20 -27 0 -37 -16 -16 -24 9 -3 14 -13 11 -20
-3 -8 1 -20 9 -26 8 -7 14 -8 14 -2 0 5 11 12 24 14 19 4 23 1 19 -16 -11 -48
-13 -50 -28 -30 -11 15 -17 16 -23 6 -5 -7 -25 -15 -46 -19 -31 -5 -35 -3 -30
11 3 9 1 16 -5 16 -6 0 -11 -4 -11 -10 0 -5 -4 -10 -10 -10 -5 0 -10 15 -10
33 0 25 3 29 11 17 8 -11 12 -12 16 -2 2 6 11 12 19 12 20 0 18 16 -3 25 -16
6 -15 9 6 26 21 17 23 23 13 40 -19 29 -15 41 8 29 16 -8 26 -7 42 5 31 21 38
19 38 -10z m-2551 -162 c-14 -36 -11 -45 11 -38 11 3 27 2 35 -2 13 -8 11 -13
-15 -36 -26 -24 -28 -30 -18 -47 7 -11 19 -18 26 -15 7 3 23 0 35 -7 l21 -11
-21 -8 c-19 -7 -19 -11 -9 -43 6 -20 15 -36 20 -36 4 0 3 -7 -4 -15 -7 -8 -16
-13 -20 -10 -5 3 -11 1 -15 -5 -3 -5 0 -10 8 -10 18 0 49 -34 45 -51 -2 -7 4
-13 12 -14 8 0 16 -7 18 -17 2 -13 -4 -15 -32 -13 -63 6 -107 -30 -76 -61 8
-8 6 -15 -5 -24 -20 -16 -61 2 -68 31 -6 22 -37 26 -37 5 0 -8 7 -17 16 -20
21 -8 10 -23 -36 -46 -37 -19 -60 -14 -45 9 3 5 0 13 -5 16 -7 5 -5 12 7 21
17 13 17 15 -1 29 -15 11 -16 17 -8 28 17 21 2 28 -22 12 -31 -23 -57 -19 -27
4 15 12 21 23 16 31 -6 10 -1 12 23 7 17 -4 34 -2 37 3 3 5 -6 10 -20 12 -14
2 -25 8 -25 13 1 6 9 9 18 8 10 -1 11 0 5 3 -15 7 -17 40 -3 49 6 3 10 13 10
21 0 11 -5 12 -17 6 -10 -5 -27 -6 -37 -2 -19 6 -19 7 -1 14 16 6 17 9 5 16
-13 8 -13 12 3 27 16 16 17 16 17 -5 0 -24 1 -25 24 -16 9 3 16 12 16 20 0 7
9 18 20 24 11 6 20 7 20 3 0 -4 5 -2 11 4 7 7 8 17 3 25 -17 27 -14 78 7 91
10 6 19 19 19 28 0 13 9 17 34 17 33 0 34 -1 25 -25z m1567 -105 c4 -18 6 -48
5 -65 -1 -19 2 -33 8 -33 6 0 11 14 11 30 0 44 16 37 40 -17 14 -33 17 -50 10
-57 -8 -8 -14 -6 -20 4 -8 12 -10 11 -10 -5 0 -17 -2 -17 -10 -5 -8 13 -10 13
-10 -2 0 -9 5 -20 10 -23 18 -11 11 -33 -12 -41 -13 -4 -26 -12 -30 -18 -4 -6
-8 3 -8 21 0 32 -15 53 -22 31 -5 -13 -28 -2 -28 12 0 5 11 12 25 16 20 5 23
9 14 20 -6 8 -18 14 -25 14 -8 0 -14 4 -14 9 0 5 -9 11 -20 14 -23 6 -27 27
-6 27 19 0 42 30 38 52 -2 11 3 18 12 18 9 0 16 7 16 15 0 28 18 15 26 -17z
m321 -92 c-4 -10 4 -17 24 -21 31 -7 36 -32 5 -27 -14 2 -14 -1 -5 -22 10 -22
8 -32 -19 -73 -26 -38 -32 -44 -32 -25 0 12 -4 22 -10 22 -5 0 -10 -8 -10 -18
0 -10 -5 -23 -12 -30 -9 -9 -8 -12 6 -12 23 0 86 30 86 40 0 18 42 21 65 6 23
-15 43 -7 31 13 -4 5 6 24 21 43 15 18 28 35 30 37 2 3 10 -2 18 -10 20 -20 9
-61 -15 -54 -20 6 -45 -19 -35 -35 8 -13 -25 -41 -39 -33 -4 3 -24 -11 -42
-32 -32 -34 -33 -37 -14 -42 24 -6 26 -19 5 -27 -8 -3 -15 -9 -14 -13 3 -20
-2 -23 -17 -8 -12 11 -25 14 -46 9 -21 -4 -28 -3 -24 5 4 6 12 9 17 5 6 -3 9
6 7 23 -3 27 -33 61 -45 49 -3 -3 -13 0 -21 7 -13 10 -15 9 -9 -5 4 -12 0 -21
-13 -28 -31 -17 -45 -12 -47 17 -1 28 21 53 47 52 10 0 11 -2 3 -6 -21 -8 -15
-22 7 -16 11 3 20 13 20 23 0 27 -26 49 -50 43 -23 -6 -24 -4 -10 32 5 14 14
24 19 21 20 -13 41 6 35 30 -5 18 -2 24 10 24 9 0 16 -5 16 -12 0 -6 9 -3 20
7 11 10 20 26 20 37 0 10 5 18 11 18 6 0 9 -6 6 -14z"/>
<path d="M5780 1628 c16 -14 40 -53 40 -64 0 -4 -7 -1 -15 6 -9 7 -18 10 -22
6 -3 -3 0 -6 7 -6 9 0 6 -7 -8 -20 -24 -23 -27 -35 -12 -45 6 -3 10 -15 10
-26 0 -11 8 -23 18 -26 9 -4 25 -15 35 -26 9 -11 17 -15 17 -8 0 8 7 10 19 6
23 -7 53 29 44 53 -4 10 -2 13 5 8 14 -8 15 3 3 22 -7 12 -11 11 -22 -1 -12
-13 -17 -13 -42 1 -15 9 -25 21 -22 27 3 5 8 18 11 28 4 9 10 17 15 17 5 0 9
5 9 11 0 8 -4 8 -15 -1 -18 -15 -35 -5 -35 21 0 10 -4 19 -9 19 -5 0 -18 3
-28 6 -16 5 -16 4 -3 -8z"/>
<path d="M3843 713 c-19 -7 -16 -53 3 -53 14 0 14 -2 0 -15 -8 -8 -18 -24 -21
-35 -3 -11 -12 -20 -18 -20 -7 0 -12 -15 -11 -37 1 -30 5 -38 20 -38 12 0 20
-8 22 -22 4 -24 16 -30 27 -13 4 6 11 8 16 5 5 -4 9 0 9 8 0 8 9 22 20 32 40
36 17 61 -27 30 -20 -14 -23 -14 -33 4 -18 35 -12 44 23 38 23 -3 40 0 57 13
24 18 24 18 5 40 -11 12 -19 24 -17 26 1 2 2 13 2 24 0 16 -6 20 -32 19 -18 0
-39 -3 -45 -6z"/>
<path d="M3846 2659 c-15 -18 -14 -19 9 -19 14 0 25 -4 25 -10 0 -5 -6 -10
-14 -10 -9 0 -12 -7 -9 -18 6 -24 -21 -46 -47 -39 -11 3 -23 1 -26 -4 -3 -5 0
-9 5 -9 6 0 11 -11 11 -25 0 -18 -5 -25 -19 -25 -11 0 -23 5 -26 10 -3 6 -13
10 -22 10 -11 0 -13 -4 -6 -12 6 -7 10 -28 10 -45 0 -26 -4 -33 -21 -33 -15 0
-17 3 -8 12 7 7 12 15 12 18 0 11 -78 11 -85 0 -6 -9 14 -14 43 -11 21 3 13
-16 -9 -22 -17 -5 -19 -9 -10 -25 13 -25 4 -33 -26 -26 -13 4 -30 1 -38 -6 -8
-7 -22 -10 -30 -6 -22 8 -57 -26 -49 -47 3 -10 17 -17 31 -17 22 0 25 -4 21
-29 -2 -17 0 -28 4 -25 5 3 14 1 21 -5 8 -6 18 -6 27 -1 8 6 21 10 29 10 11 0
11 -3 1 -15 -10 -12 -10 -15 4 -15 9 0 16 8 16 20 0 21 15 27 25 10 3 -5 1
-10 -4 -10 -6 0 -11 -10 -11 -21 0 -16 -5 -20 -20 -16 -10 3 -21 0 -23 -7 -3
-8 -12 -8 -35 0 -33 13 -82 8 -82 -8 0 -6 -17 -8 -43 -4 -34 5 -48 3 -65 -12
-25 -22 -28 -34 -9 -31 36 4 48 -1 42 -20 -4 -15 1 -24 23 -35 28 -14 31 -14
55 8 18 17 28 21 36 13 21 -21 11 9 -10 32 -16 17 -18 26 -10 34 8 8 11 7 11
-4 0 -9 12 -21 28 -28 22 -10 25 -10 15 0 -22 22 -15 32 17 26 24 -5 30 -3 30
10 0 13 3 14 12 5 16 -16 45 -15 51 1 3 9 8 9 21 -2 12 -10 15 -22 11 -42 -5
-20 -1 -33 14 -48 19 -19 20 -19 36 -1 10 11 18 31 18 45 0 15 5 29 12 31 15
6 13 38 -4 58 -9 10 -22 13 -42 9 -36 -7 -73 21 -65 50 3 14 0 16 -15 12 -10
-4 -19 -3 -19 1 0 10 41 44 53 44 11 0 36 30 37 43 0 4 -8 7 -17 5 -11 -2 -18
3 -18 12 0 11 11 15 39 15 26 0 41 -5 44 -15 5 -13 3 -13 -11 -1 -15 12 -17
11 -17 -8 0 -12 -7 -38 -15 -58 -15 -35 -15 -37 12 -65 34 -36 57 -37 51 -3
-4 16 0 29 10 34 23 13 4 32 -24 25 -13 -3 -24 -2 -24 4 0 5 9 12 20 15 23 6
41 46 33 75 -3 14 -11 18 -25 14 -20 -5 -20 -4 -3 22 9 14 18 26 20 26 1 0 21
-18 44 -40 l42 -41 30 31 c17 16 36 30 42 30 7 0 4 -5 -6 -11 -9 -6 -15 -14
-12 -19 3 -5 -4 -25 -16 -44 -11 -20 -17 -36 -13 -36 4 0 -8 -11 -27 -25 -39
-30 -44 -51 -11 -47 l23 2 -21 -30 c-15 -22 -27 -29 -40 -25 -30 9 -33 -13 -7
-45 14 -16 27 -35 30 -42 4 -10 7 -11 18 0 16 14 33 16 24 2 -3 -5 3 -10 15
-10 18 0 15 5 -17 36 l-37 36 45 21 c24 11 50 21 58 21 17 1 28 26 12 26 -22
0 -10 28 14 32 26 5 34 -6 13 -16 -10 -5 -10 -7 0 -12 6 -3 12 -12 12 -21 0
-8 5 -13 11 -11 14 5 41 68 29 68 -6 0 -10 16 -10 35 0 31 3 35 25 35 26 0 26
0 8 25 -10 13 -24 25 -30 25 -7 0 -13 5 -13 10 0 6 6 10 13 10 7 1 4 8 -8 18
-26 22 -31 52 -10 52 24 0 13 23 -18 38 -15 7 -27 18 -27 24 0 7 -5 7 -14 -1
-17 -15 -28 -1 -15 19 13 22 11 26 -12 27 -11 1 -23 -5 -26 -13 -3 -8 -14 -14
-25 -14 -10 0 -17 4 -14 9 8 13 -17 59 -35 64 -9 3 -24 -4 -33 -14z"/>
<path d="M1640 2345 c-6 -8 -9 -19 -5 -25 10 -16 -6 -12 -27 7 -21 19 -32 11
-41 -27 -5 -19 -1 -29 13 -38 12 -7 20 -8 20 -2 0 5 5 10 11 10 6 0 9 -6 6
-14 -8 -20 15 -37 33 -25 10 6 12 11 4 17 -21 14 -23 40 -4 45 21 5 40 -10 40
-33 0 -9 5 -21 11 -27 6 -6 9 -21 7 -34 -2 -18 -11 -25 -33 -29 l-30 -6 32
-14 c23 -10 33 -22 36 -45 3 -16 3 -31 2 -33 -8 -8 -45 24 -40 35 2 7 0 13 -5
13 -14 0 -12 -34 2 -48 9 -9 7 -13 -5 -18 -9 -3 -17 -10 -17 -15 0 -5 11 -4
24 1 13 5 27 6 30 3 8 -9 36 29 29 40 -2 4 1 14 7 22 10 12 10 18 0 30 -19 23
-21 75 -3 75 8 0 11 -4 8 -10 -3 -5 3 -10 14 -10 12 0 21 5 21 10 0 6 -5 10
-11 10 -6 0 -8 7 -5 15 3 9 1 15 -7 14 -26 -3 -38 1 -31 12 3 6 19 9 34 5 22
-4 27 -1 26 12 -1 12 5 16 22 14 25 -4 29 10 8 28 -8 6 -12 18 -9 26 3 8 0 14
-7 14 -6 0 -9 -4 -6 -8 2 -4 -5 -14 -16 -21 -18 -11 -20 -11 -15 2 4 11 0 13
-14 10 -13 -4 -19 0 -19 11 0 24 -17 19 -36 -9 -9 -14 -21 -22 -26 -19 -6 4
-6 9 2 14 13 8 6 30 -9 30 -5 0 -14 -7 -21 -15z"/>
<path d="M2110 1810 c9 -16 8 -20 -5 -20 -8 0 -15 -5 -15 -12 0 -9 -3 -9 -12
0 -9 9 -16 8 -31 -5 -17 -16 -19 -17 -28 -1 -11 19 -39 13 -39 -7 0 -7 -6 -15
-12 -18 -7 -2 -10 -8 -5 -12 4 -5 14 0 23 11 10 12 17 15 20 8 3 -8 17 -9 41
-3 41 9 53 5 53 -18 0 -9 -6 -13 -14 -10 -8 3 -16 1 -18 -5 -2 -6 -15 -12 -28
-13 -40 -4 -41 -5 -35 -14 3 -5 -9 -9 -26 -9 -17 1 -33 7 -36 14 -2 7 -16 15
-29 18 -14 4 -29 17 -34 29 -8 19 -9 19 -9 3 -2 -34 41 -106 63 -107 12 -1 36
-3 53 -5 18 -1 35 2 39 7 3 5 16 9 30 9 13 0 24 4 24 9 0 5 6 16 13 23 6 7 20
30 30 51 16 34 16 40 2 67 -9 17 -18 30 -21 30 -2 0 0 -9 6 -20z"/>
<path d="M1375 1552 c-9 -9 -5 -23 5 -17 6 4 5 -4 -1 -19 -10 -22 -14 -24 -23
-10 -10 14 -14 13 -32 -3 -12 -10 -25 -29 -29 -42 l-7 -24 25 19 c14 11 23 22
21 26 -2 4 0 9 4 12 5 3 17 -12 27 -34 11 -25 25 -40 36 -40 22 0 36 39 19 50
-9 6 -10 16 -3 36 11 33 34 46 26 15 -6 -22 12 -29 20 -8 3 6 4 -4 3 -23 -2
-19 -8 -36 -15 -38 -6 -2 -11 -10 -11 -17 0 -7 -6 -15 -12 -18 -10 -3 -10 -7
0 -20 8 -9 11 -22 7 -29 -3 -7 2 -3 11 10 9 12 23 22 30 22 8 0 14 5 14 10 0
6 -4 10 -8 10 -4 0 -3 25 2 55 9 50 26 76 26 40 0 -8 5 -15 10 -15 21 0 10 40
-12 45 -35 8 -126 13 -133 7z"/>
</g>
</svg>
